<svg width="13" height="13" viewBox="0 0 13 13" fill="none" xmlns="http://www.w3.org/2000/svg">
<path d="M3.40068 2.54954L2.34295 1.48402L1.50682 2.32397L2.5675 3.3895L3.40068 2.54954ZM1.77273 5.90639H0V7.09361H1.77273V5.90639ZM7.09091 0H5.90909V1.75114H7.09091V0ZM11.4932 2.32397L10.657 1.48402L9.59636 2.54954L10.4325 3.3895L11.4932 2.32397ZM9.59932 10.4505L10.66 11.516L11.4961 10.676L10.4355 9.6105L9.59932 10.4505ZM11.2273 5.90639V7.09361H13V5.90639H11.2273ZM6.5 2.93836C4.54114 2.93836 2.95455 4.53219 2.95455 6.5C2.95455 8.46781 4.54114 10.0616 6.5 10.0616C8.45886 10.0616 10.0455 8.46781 10.0455 6.5C10.0455 4.53219 8.45886 2.93836 6.5 2.93836ZM5.90909 13H7.09091V11.2489H5.90909V13ZM1.50682 10.676L2.34295 11.516L3.40364 10.4505L2.5675 9.6105L1.50682 10.676Z" fill="white"/>
</svg>
