<svg width="25" height="25" viewBox="0 0 25 25" fill="none" xmlns="http://www.w3.org/2000/svg">
<path d="M22.6116 0H1.80283C0.806025 0 0 0.786948 0 1.7599V22.6546C0 23.6275 0.806025 24.4192 1.80283 24.4192H22.6116C23.6084 24.4192 24.4192 23.6275 24.4192 22.6593V1.7599C24.4192 0.786948 23.6084 0 22.6116 0ZM7.24469 20.8088H3.61996V9.15244H7.24469V20.8088ZM5.43232 7.56424C4.2686 7.56424 3.32903 6.62467 3.32903 5.46571C3.32903 4.30675 4.2686 3.36718 5.43232 3.36718C6.59128 3.36718 7.53085 4.30675 7.53085 5.46571C7.53085 6.6199 6.59128 7.56424 5.43232 7.56424ZM20.8088 20.8088H17.1888V15.1428C17.1888 13.793 17.165 12.0522 15.3049 12.0522C13.421 12.0522 13.1349 13.526 13.1349 15.0474V20.8088H9.51968V9.15244H12.9918V10.7454H13.0395C13.5212 9.82969 14.704 8.86151 16.4639 8.86151C20.1316 8.86151 20.8088 11.2748 20.8088 14.4131V20.8088Z" fill="#2D2E2D"/>
</svg>
