<svg width="53" height="38" viewBox="0 0 53 38" fill="none" xmlns="http://www.w3.org/2000/svg">
<path d="M50.8743 19.6089C50.8743 19.5547 50.8711 19.5004 50.8678 19.4461C50.863 19.3408 50.8581 19.2338 50.8533 19.1285C50.85 19.0646 50.8468 19.0008 50.8419 18.9354C50.8354 18.8348 50.8273 18.7358 50.8176 18.6353C50.8063 18.5092 50.7949 18.3847 50.7804 18.2602C50.7723 18.1883 50.7642 18.1149 50.7561 18.0431C50.7447 17.9473 50.7318 17.8532 50.7172 17.7574C50.7091 17.7047 50.7026 17.6504 50.6945 17.5978C50.6799 17.4956 50.6637 17.3935 50.6459 17.2929C50.6394 17.2578 50.6329 17.2227 50.6281 17.1891C50.5665 16.8348 50.492 16.4852 50.4077 16.1405C50.3996 16.1053 50.3915 16.0718 50.3818 16.0367C50.3559 15.933 50.3283 15.8308 50.3008 15.7271C50.2895 15.6824 50.2765 15.6377 50.2635 15.593C50.236 15.494 50.2084 15.395 50.1793 15.2977C50.1647 15.2498 50.1501 15.2019 50.1339 15.154C50.0886 15.0072 50.0416 14.8619 49.9913 14.7183C49.9622 14.6337 49.933 14.5475 49.9022 14.4629C49.8812 14.4038 49.8585 14.3464 49.8374 14.2873C49.8018 14.1899 49.7645 14.0942 49.7273 13.9968C49.7094 13.9505 49.6916 13.9042 49.6722 13.8595C49.622 13.735 49.5701 13.6105 49.5166 13.486C49.5102 13.4685 49.5021 13.4525 49.4956 13.435C48.6612 11.5148 47.4477 9.71588 45.8567 8.14844C45.8259 8.11811 45.7935 8.08779 45.7611 8.05746C45.7433 8.0415 45.7271 8.02394 45.7093 8.00798C45.0839 7.40622 44.4213 6.86353 43.7327 6.3735C43.663 7.20511 43.5124 8.27135 43.3001 9.43017C43.5901 9.68396 43.872 9.94732 44.141 10.2219C44.1766 10.2586 44.2106 10.2937 44.2463 10.3304C44.3921 10.4836 44.5347 10.6385 44.674 10.7965C44.6999 10.8268 44.7275 10.8571 44.7534 10.8875C44.9041 11.063 45.0515 11.2418 45.1941 11.4238C45.207 11.4397 45.2184 11.4557 45.2313 11.4717C45.6218 11.9761 45.9782 12.506 46.2974 13.0583C46.3249 13.1061 46.3525 13.1556 46.38 13.2051C46.4675 13.3615 46.5534 13.5196 46.6344 13.6792C46.6749 13.759 46.7154 13.8372 46.7543 13.917C46.8029 14.016 46.8515 14.1165 46.8969 14.2171C46.9584 14.3512 47.0184 14.4852 47.0751 14.6209C47.1026 14.6864 47.1302 14.7534 47.1577 14.8188C47.2257 14.988 47.2906 15.1572 47.3521 15.328C47.3667 15.3711 47.3813 15.4142 47.3975 15.4557C47.5368 15.8579 47.6599 16.2634 47.762 16.6752C47.7653 16.6879 47.7685 16.7007 47.7717 16.7135C47.8236 16.9242 47.8706 17.1365 47.9127 17.3504C47.9159 17.3647 47.9192 17.3807 47.9208 17.3951C48.0034 17.8244 48.0666 18.2554 48.1104 18.6879C48.112 18.7071 48.1152 18.7263 48.1168 18.7454C48.1363 18.9497 48.1509 19.1556 48.1622 19.3615C48.1638 19.3982 48.1654 19.4334 48.1671 19.4701C48.1865 19.8962 48.1865 20.3224 48.1671 20.7486C48.1671 20.7598 48.1671 20.7725 48.1671 20.7837C48.1557 21.0024 48.1395 21.2211 48.1201 21.4381C48.1201 21.4461 48.1201 21.4541 48.1185 21.4637C48.0974 21.6871 48.0698 21.909 48.0374 22.1309V22.1341C47.9386 22.8109 47.7896 23.4812 47.5919 24.1389C47.5919 24.1405 47.5919 24.1421 47.5903 24.1453C47.5255 24.3591 47.4558 24.5714 47.3813 24.7821C47.3764 24.7949 47.3732 24.8061 47.3683 24.8188C47.297 25.0184 47.2209 25.2163 47.1399 25.4142C47.1302 25.4381 47.1188 25.4637 47.1091 25.4876C47.0329 25.6712 46.9519 25.8532 46.8677 26.0335C46.8499 26.0702 46.8321 26.1069 46.8158 26.1437C46.7365 26.3112 46.6522 26.4773 46.5647 26.6433C46.5404 26.6895 46.5145 26.7374 46.4902 26.7837C46.406 26.9385 46.3185 27.0934 46.2294 27.2466C46.1986 27.2977 46.1678 27.3504 46.137 27.4014C46.0463 27.5499 45.9539 27.6967 45.8567 27.842C45.8227 27.8931 45.7887 27.9441 45.7547 27.9936C45.6542 28.1405 45.5505 28.2873 45.4452 28.431C45.4128 28.4741 45.3804 28.5188 45.348 28.5618C45.233 28.7151 45.1147 28.8651 44.9916 29.0152C44.9656 29.0471 44.9397 29.079 44.9138 29.1109C44.7777 29.2737 44.6384 29.435 44.4942 29.593C44.4796 29.6089 44.465 29.6265 44.4504 29.6425C44.29 29.818 44.1232 29.9888 43.953 30.158C43.7813 30.3272 43.6063 30.49 43.4297 30.648C43.4135 30.6624 43.3957 30.6768 43.3795 30.6911C43.2191 30.8332 43.0555 30.9705 42.8902 31.1045C42.8578 31.1301 42.8254 31.1556 42.793 31.1812C42.6407 31.3009 42.4884 31.419 42.3329 31.5323C42.2891 31.5642 42.2454 31.5962 42.2 31.6281C42.0526 31.7334 41.9052 31.8356 41.7545 31.933C41.7043 31.9665 41.6524 32 41.6006 32.0319C41.4531 32.1261 41.3025 32.2187 41.1518 32.3081C41.1 32.3384 41.0481 32.3687 40.9946 32.399C40.8391 32.4884 40.6836 32.5746 40.5248 32.6576C40.4778 32.6832 40.4308 32.7071 40.3822 32.731C40.2137 32.8172 40.0452 32.8986 39.8751 32.9784C39.8379 32.996 39.8006 33.0136 39.7633 33.0295C39.5803 33.1125 39.3956 33.1923 39.2092 33.2674C39.1849 33.2769 39.159 33.2881 39.1347 33.2977C38.9354 33.3775 38.7329 33.4525 38.5304 33.5227C38.5191 33.5275 38.5061 33.5307 38.4948 33.5355C38.2809 33.6089 38.0654 33.6776 37.8483 33.7414C37.8467 33.7414 37.8451 33.7414 37.8418 33.743C37.1727 33.9377 36.4922 34.0846 35.8069 34.182H35.8037C35.5785 34.2139 35.3517 34.241 35.1248 34.2618C35.1167 34.2618 35.1086 34.2618 35.0989 34.2634C34.877 34.2841 34.6566 34.3001 34.4347 34.3097C34.4217 34.3097 34.4104 34.3097 34.3974 34.3097C34.1754 34.3192 33.9535 34.3256 33.7315 34.3256C33.5095 34.3256 33.2876 34.3192 33.0656 34.3097C33.0527 34.3097 33.0413 34.3097 33.0284 34.3097C32.8064 34.2985 32.5844 34.2841 32.3641 34.2634C32.356 34.2634 32.3463 34.2634 32.3382 34.2618C32.1114 34.241 31.8862 34.2139 31.661 34.182C31.6593 34.182 31.6577 34.182 31.6561 34.182C30.9708 34.0846 30.2903 33.9377 29.6212 33.743C29.6179 33.743 29.6163 33.743 29.6131 33.7414C29.396 33.6776 29.1821 33.6089 28.9683 33.5355C28.9553 33.5307 28.944 33.5275 28.931 33.5227C28.7285 33.4525 28.5276 33.3775 28.3283 33.2993C28.3024 33.2897 28.2781 33.2785 28.2522 33.269C28.0658 33.1939 27.8828 33.1157 27.6997 33.0327C27.6608 33.0152 27.6235 32.9976 27.5863 32.98C27.4162 32.9018 27.2477 32.8188 27.0808 32.7342C27.0322 32.7103 26.9852 32.6848 26.9382 32.6592C26.7811 32.5762 26.6239 32.49 26.47 32.4022C26.4165 32.3719 26.3647 32.3416 26.3128 32.3097C26.1622 32.2203 26.0131 32.1293 25.8657 32.0351C25.8138 32.0016 25.762 31.9681 25.7118 31.9346C25.5627 31.8356 25.4153 31.735 25.2678 31.6297C25.2225 31.5978 25.1787 31.5658 25.1334 31.5339C24.9795 31.4206 24.8255 31.3041 24.6749 31.1844C24.6425 31.1588 24.6101 31.1333 24.5777 31.1061C24.4124 30.9721 24.2504 30.8348 24.09 30.6927C24.0738 30.6784 24.056 30.664 24.0398 30.648C23.8632 30.49 23.6882 30.3272 23.5165 30.158C23.3447 29.9888 23.1795 29.818 23.0191 29.6425C23.0045 29.6265 22.9899 29.6089 22.9737 29.593C22.8295 29.435 22.6902 29.2753 22.5557 29.1125C22.5298 29.0806 22.5039 29.0487 22.4763 29.0168C22.3548 28.8683 22.2365 28.7167 22.1215 28.565C22.0891 28.5219 22.0567 28.4773 22.0243 28.4342C21.9174 28.2905 21.8153 28.1437 21.7148 27.9968C21.6808 27.9457 21.6468 27.8962 21.6128 27.8452C21.5172 27.6999 21.4232 27.5531 21.3325 27.4046C21.3017 27.3535 21.2709 27.3009 21.2401 27.2498C21.1494 27.0966 21.0619 26.9433 20.9793 26.7869C20.9534 26.7406 20.9291 26.6943 20.9048 26.6464C20.8173 26.482 20.7347 26.3144 20.6553 26.1484C20.6374 26.1117 20.6196 26.0734 20.6018 26.0367C20.5176 25.8563 20.4365 25.6744 20.3604 25.4908C20.3507 25.4669 20.3393 25.4413 20.3296 25.4174C20.2486 25.2211 20.1725 25.0215 20.1012 24.822C20.0963 24.8093 20.0931 24.7981 20.0882 24.7853C20.0137 24.5746 19.944 24.3623 19.8792 24.1484C19.8792 24.1468 19.8792 24.1437 19.8776 24.1421C19.6799 23.4828 19.5309 22.8124 19.4321 22.1373C19.4321 22.1373 19.4321 22.1341 19.4321 22.1325C19.3997 21.9106 19.3721 21.6871 19.351 21.4637C19.351 21.4557 19.351 21.4477 19.3494 21.4397C19.3284 21.2211 19.3122 21.0024 19.3024 20.7837C19.3024 20.7725 19.3024 20.7598 19.3024 20.7486C19.2814 20.3097 19.2814 19.8707 19.3024 19.4318C19.3024 19.4206 19.3024 19.4078 19.3024 19.3966C19.3138 19.178 19.33 18.9593 19.3494 18.7406C19.3494 18.7326 19.3494 18.7247 19.351 18.7167C19.3721 18.4932 19.3997 18.2698 19.4321 18.0479C19.4321 18.0479 19.4321 18.0463 19.4321 18.0447C19.5309 17.3679 19.6799 16.6975 19.8776 16.0383C19.8776 16.0367 19.8776 16.0351 19.8792 16.0335C19.944 15.8196 20.0137 15.6073 20.0882 15.3966C20.0931 15.3855 20.0963 15.3727 20.1012 15.3615C20.1725 15.162 20.2486 14.9625 20.3296 14.7662C20.3393 14.7422 20.3491 14.7183 20.3604 14.6927C20.4365 14.5092 20.5176 14.3272 20.6018 14.1468C20.6196 14.1101 20.6374 14.0734 20.6536 14.0351C20.733 13.8675 20.8173 13.6999 20.9048 13.5355C20.9291 13.4892 20.955 13.4429 20.9793 13.3966C21.0635 13.2402 21.151 13.087 21.2418 12.9338C21.2725 12.8827 21.3033 12.8316 21.3341 12.7805C21.4248 12.6321 21.5188 12.4852 21.6144 12.3384C21.6484 12.2873 21.6808 12.2378 21.7148 12.1883C21.8153 12.0399 21.919 11.8947 22.0259 11.7494C22.0583 11.7063 22.0907 11.6616 22.1231 11.6185C22.2382 11.4653 22.3564 11.3152 22.4796 11.1652C22.5055 11.1333 22.5314 11.1014 22.5573 11.0694C22.6934 10.9066 22.8328 10.7454 22.9769 10.5874C22.9915 10.5714 23.0061 10.5539 23.0207 10.5379C23.1811 10.3623 23.348 10.1915 23.5181 10.0223C23.6963 9.84677 23.8777 9.67757 24.0624 9.51317C24.0786 9.4988 24.0965 9.48444 24.1127 9.47007C24.2828 9.32003 24.4578 9.17478 24.6327 9.03272C24.6554 9.01516 24.6781 8.99601 24.7008 8.97845C24.8774 8.83958 25.0556 8.70391 25.2371 8.57462C25.2549 8.56185 25.2743 8.54748 25.2921 8.53472C25.4882 8.39585 25.6858 8.26177 25.8867 8.13408C25.8867 8.13408 25.8884 8.13408 25.89 8.13248C26.7292 7.59776 27.6138 7.15722 28.526 6.81085V6.80766C29.6503 6.37989 30.8444 6.08619 32.0854 5.94732C32.0854 5.94732 32.0854 5.94892 32.0871 5.95052C33.9275 5.74301 35.8004 5.88348 37.5956 6.37191C37.6247 6.37989 37.6523 6.38787 37.6798 6.39585C37.7641 6.41979 37.8499 6.44373 37.9342 6.46927C37.999 6.48843 38.0638 6.50918 38.127 6.52833C38.1513 6.53631 38.1756 6.54429 38.1999 6.55227C39.1185 5.79409 39.9869 5.13168 40.6901 4.65443C40.6123 4.62091 40.5345 4.5826 40.4568 4.55068C40.4373 4.5427 40.4163 4.53472 40.3968 4.52673C40.2656 4.47246 40.1343 4.41819 40.0015 4.36712C39.9529 4.34796 39.9027 4.33041 39.8541 4.31125C39.7504 4.27135 39.6451 4.23304 39.5414 4.19633C39.462 4.1676 39.3826 4.14206 39.3032 4.11492C39.2271 4.08938 39.1509 4.06384 39.0748 4.03831C38.9678 4.00319 38.8609 3.97127 38.7524 3.93775C38.7021 3.92338 38.6519 3.90742 38.6017 3.89305C38.4721 3.85475 38.3425 3.81963 38.2112 3.78452C38.1821 3.77653 38.1513 3.76855 38.1221 3.76057C37.9763 3.72226 37.8289 3.68715 37.6814 3.65203C37.6652 3.64884 37.6507 3.64405 37.6345 3.64086C37.4789 3.60574 37.3218 3.57063 37.163 3.5403C37.1549 3.53871 37.1468 3.53711 37.1387 3.53551C36.9783 3.50359 36.8163 3.47326 36.6543 3.44613C36.6478 3.44613 36.6413 3.44453 36.6348 3.44294C36.4744 3.4158 36.3124 3.39186 36.1504 3.36792C36.1407 3.36792 36.1326 3.36472 36.1229 3.36472C35.9657 3.34238 35.8069 3.32322 35.6481 3.30566C35.6336 3.30407 35.6174 3.30247 35.6028 3.30088C35.4505 3.28491 35.2982 3.27055 35.1459 3.25778C35.1232 3.25618 35.1005 3.25459 35.0779 3.25299C34.932 3.24182 34.7862 3.23224 34.6388 3.22426C34.6096 3.22426 34.5788 3.22107 34.5497 3.21947C34.4087 3.21309 34.2662 3.2083 34.1236 3.20511C34.0912 3.20511 34.0604 3.20511 34.028 3.20511C33.9292 3.20351 33.8303 3.20032 33.7315 3.20032C31.2786 3.20032 28.9472 3.7079 26.8378 4.6225C26.8378 4.6225 26.8361 4.6225 26.8345 4.6225C26.679 4.68954 26.5235 4.75977 26.3695 4.8316C26.3663 4.8316 26.3631 4.83479 26.3614 4.83639C26.2075 4.90822 26.0536 4.98324 25.9029 5.05985C25.89 5.06624 25.8786 5.07262 25.8673 5.07901C25.7425 5.14286 25.6194 5.2067 25.4963 5.27374C25.4396 5.30407 25.3829 5.33599 25.3262 5.36792C25.2484 5.41101 25.1722 5.45411 25.0961 5.4988C25.0281 5.53711 24.9616 5.57701 24.8952 5.61692C24.832 5.65523 24.7688 5.69353 24.7056 5.73184C24.4383 5.89465 24.1742 6.06544 23.915 6.24581C23.8632 6.28092 23.8113 6.31604 23.7611 6.35275C23.6866 6.40543 23.6137 6.4581 23.5408 6.51077C23.4857 6.55068 23.429 6.59218 23.3739 6.63368C23.3058 6.68476 23.2362 6.73583 23.1681 6.78851C23.0887 6.84916 23.011 6.91141 22.9332 6.97366C22.8554 7.03591 22.7793 7.09816 22.7031 7.16201C22.6205 7.23064 22.5395 7.29768 22.4585 7.36792C22.4115 7.40942 22.3645 7.45092 22.3175 7.49082C22.2365 7.56265 22.1555 7.63448 22.0761 7.7063C22.0356 7.74301 21.9968 7.77813 21.9563 7.81484C21.7343 8.02075 21.5188 8.23144 21.3098 8.44852C21.2612 8.4996 21.2142 8.55068 21.1656 8.60016C21.1186 8.64964 21.0716 8.69912 21.0247 8.7502C20.9615 8.81883 20.8999 8.88906 20.8367 8.9577C20.8076 8.98962 20.7784 9.02155 20.7509 9.05347C20.6796 9.13487 20.6083 9.21788 20.5386 9.30088C20.5208 9.32163 20.5046 9.34078 20.4868 9.36153C20.409 9.45411 20.3329 9.54669 20.2583 9.64086C20.2502 9.65203 20.2405 9.66161 20.2324 9.67278C20.1514 9.77494 20.072 9.87709 19.9926 9.98084C19.991 9.98404 19.9878 9.98563 19.9861 9.98883C19.4871 10.6449 19.0432 11.3296 18.6544 12.0351C18.6528 12.0399 18.6495 12.0431 18.6479 12.0479C18.5863 12.1596 18.5264 12.2713 18.4681 12.3847C18.46 12.399 18.4535 12.4134 18.4454 12.4278C18.3919 12.5299 18.3401 12.6337 18.2898 12.7358C18.2769 12.763 18.2623 12.7917 18.2493 12.8188C18.2056 12.9098 18.1635 12.9992 18.1214 13.0902C18.1019 13.1333 18.0825 13.1764 18.063 13.2195C18.029 13.2961 17.995 13.3711 17.961 13.4477C17.935 13.5068 17.9091 13.5674 17.8848 13.6265C17.8589 13.6872 17.8346 13.7478 17.8103 13.8069C17.7795 13.8835 17.7487 13.9617 17.7179 14.0383C17.7001 14.083 17.6839 14.1261 17.6661 14.1708C17.6304 14.2634 17.5964 14.3575 17.5624 14.4517C17.5527 14.4804 17.5413 14.5092 17.5316 14.5395C17.4927 14.648 17.4571 14.7566 17.4198 14.8651C17.415 14.8811 17.4101 14.8954 17.4052 14.9114C17.3664 15.0311 17.3275 15.1524 17.2918 15.2737C17.2918 15.2785 17.2886 15.2833 17.287 15.2881C17.0553 16.0575 16.8787 16.8508 16.7604 17.6632C16.7604 17.6664 16.7604 17.6712 16.7604 17.6744C16.7426 17.8021 16.7248 17.9298 16.7086 18.0591C16.707 18.0718 16.7053 18.0862 16.7037 18.099C16.6891 18.2171 16.6762 18.3368 16.6648 18.4565C16.6616 18.4836 16.66 18.5092 16.6584 18.5363C16.6486 18.6433 16.6389 18.7502 16.6308 18.8571C16.6276 18.9018 16.626 18.9449 16.6227 18.9896C16.6162 19.0806 16.6114 19.1716 16.6065 19.2626C16.6033 19.3328 16.6016 19.4014 16.5984 19.4717C16.5952 19.5387 16.5919 19.6057 16.5903 19.6744C16.5838 19.9537 16.5838 20.233 16.5903 20.5108C16.5919 20.5778 16.5952 20.6448 16.5984 20.7135C16.6016 20.7837 16.6033 20.8524 16.6065 20.9226C16.6114 21.0136 16.6179 21.1045 16.6227 21.1955C16.626 21.2402 16.6276 21.2833 16.6308 21.328C16.6389 21.435 16.6486 21.5419 16.6584 21.6488C16.6616 21.676 16.6632 21.7015 16.6648 21.7286C16.6762 21.8484 16.6891 21.9681 16.7037 22.0862C16.7037 22.099 16.707 22.1133 16.7086 22.1261C16.7248 22.2554 16.741 22.3831 16.7604 22.5108C16.7604 22.514 16.7604 22.5188 16.7604 22.5219C16.8787 23.3328 17.0569 24.1261 17.287 24.897L17.2918 24.9114C17.3291 25.0327 17.3664 25.154 17.4052 25.2737C17.4101 25.2897 17.4166 25.3057 17.4214 25.3216C17.4571 25.4302 17.4944 25.5387 17.5316 25.6472C17.5413 25.676 17.5527 25.7047 17.5624 25.735C17.5964 25.8292 17.6304 25.9234 17.6661 26.016C17.6823 26.0607 17.7001 26.1053 17.7179 26.1484C17.7487 26.2251 17.7779 26.3033 17.8103 26.3799C17.8346 26.4405 17.8605 26.5012 17.8848 26.5618C17.9107 26.6209 17.935 26.6816 17.961 26.7406C17.9934 26.8172 18.0274 26.8939 18.063 26.9689C18.0825 27.012 18.1019 27.0551 18.1214 27.0982C18.1635 27.1891 18.2056 27.2801 18.2493 27.3695C18.2623 27.3966 18.2753 27.4254 18.2898 27.4525C18.3401 27.5563 18.3919 27.6584 18.4454 27.7606C18.4535 27.7749 18.46 27.7893 18.4681 27.8037C18.5264 27.917 18.5863 28.0287 18.6479 28.1405C18.6495 28.1452 18.6528 28.1484 18.6544 28.1532C19.0432 28.8587 19.4871 29.5435 19.9861 30.2011C19.9878 30.2027 19.9894 30.2059 19.991 30.2075C20.0704 30.3113 20.1498 30.415 20.2324 30.5172C20.2405 30.5283 20.2486 30.5379 20.2583 30.5491C20.3329 30.6433 20.4106 30.7358 20.4868 30.83C20.503 30.8492 20.5208 30.8699 20.537 30.8891C20.6067 30.9721 20.678 31.0551 20.7509 31.1381C20.7784 31.17 20.8076 31.2019 20.8367 31.2338C20.8983 31.3041 20.9615 31.3727 21.0247 31.4413C21.0716 31.4924 21.1186 31.5419 21.1656 31.5914C21.2126 31.6425 21.2596 31.6919 21.3082 31.743C21.4038 31.842 21.4994 31.9393 21.5982 32.0351C21.5998 32.0367 21.6031 32.0399 21.6047 32.0415C21.6063 32.0431 21.6095 32.0463 21.6112 32.0479C21.7084 32.1437 21.8088 32.2394 21.9076 32.3336C21.9579 32.3815 22.0097 32.4278 22.0616 32.4741C22.1118 32.5203 22.1636 32.5682 22.2139 32.6129C22.2835 32.6752 22.3532 32.7358 22.4245 32.7965C22.4569 32.8252 22.4893 32.8539 22.5233 32.8827C22.6059 32.9529 22.6902 33.0215 22.7728 33.0902C22.7939 33.1077 22.8149 33.1253 22.836 33.1413C22.93 33.2179 23.0239 33.2929 23.1195 33.3663C23.1309 33.3743 23.1406 33.3839 23.1519 33.3919C23.2556 33.4717 23.3593 33.5499 23.4646 33.6281C23.4679 33.6297 23.4695 33.6329 23.4727 33.6345C24.1386 34.1261 24.8336 34.5634 25.5497 34.9465C25.5546 34.9497 25.5595 34.9513 25.5627 34.9545C25.6761 35.0152 25.7895 35.0742 25.9029 35.1317C25.9175 35.1397 25.9337 35.146 25.9483 35.154C26.052 35.2067 26.1557 35.2562 26.2594 35.3073C26.2869 35.32 26.3161 35.3344 26.3436 35.3472C26.4343 35.3903 26.5267 35.4318 26.619 35.4733C26.6628 35.4924 26.7065 35.5116 26.7503 35.5307C26.8264 35.5642 26.9042 35.5978 26.9803 35.6297C27.0419 35.6552 27.1019 35.6808 27.1634 35.7063C27.225 35.7318 27.2849 35.7558 27.3465 35.7797C27.4243 35.8101 27.5036 35.8404 27.583 35.8707C27.6268 35.8883 27.6721 35.9042 27.7159 35.9202C27.8115 35.9553 27.9071 35.9888 28.0027 36.0223C28.0318 36.0319 28.061 36.0431 28.0901 36.0527C28.2003 36.091 28.3105 36.1261 28.4223 36.1628C28.4385 36.1676 28.4531 36.1724 28.4693 36.1772C28.5924 36.2155 28.7155 36.2538 28.8387 36.2905C28.8435 36.2905 28.8468 36.2937 28.8516 36.2937C29.6341 36.5219 30.4394 36.6959 31.264 36.814C31.2673 36.814 31.2705 36.814 31.2721 36.814C31.4017 36.8332 31.533 36.8492 31.6642 36.8651C31.6772 36.8651 31.6901 36.8683 31.7031 36.8699C31.8246 36.8843 31.9461 36.897 32.0676 36.9082C32.0935 36.9114 32.1195 36.913 32.1454 36.9146C32.2556 36.9242 32.3641 36.9338 32.4743 36.9417C32.5164 36.9449 32.5601 36.9465 32.6023 36.9497C32.6962 36.9561 32.7902 36.9625 32.8858 36.9657C32.9538 36.9689 33.0203 36.9705 33.0883 36.9737C33.1596 36.9769 33.2309 36.98 33.3022 36.9816C33.4383 36.9848 33.576 36.9864 33.7121 36.9864C33.7169 36.9864 33.7202 36.9864 33.725 36.9864C33.7299 36.9864 33.7347 36.9864 33.7396 36.9864C33.8757 36.9864 34.0134 36.9848 34.1495 36.9816C34.2208 36.98 34.2937 36.9769 34.365 36.9737C34.433 36.9705 34.4995 36.9689 34.5675 36.9657C34.6615 36.9609 34.7554 36.9545 34.8494 36.9497C34.8932 36.9465 34.9353 36.9449 34.979 36.9417C35.0892 36.9338 35.1977 36.9242 35.3079 36.9146C35.3338 36.913 35.3598 36.9098 35.3857 36.9082C35.5072 36.897 35.6303 36.8843 35.7502 36.8699C35.7632 36.8699 35.7761 36.8667 35.7875 36.8651C35.9187 36.8492 36.0499 36.8332 36.1796 36.814C36.1828 36.814 36.1844 36.814 36.1877 36.814C37.0123 36.6975 37.8175 36.5219 38.6001 36.2937C38.6049 36.2937 38.6098 36.2905 38.6146 36.2889C38.7378 36.2522 38.8609 36.2155 38.984 36.1772C39.0002 36.1724 39.0148 36.1676 39.031 36.1628C39.1428 36.1277 39.253 36.091 39.3632 36.0527C39.3923 36.0431 39.4215 36.0319 39.4506 36.0223C39.5462 35.9888 39.6418 35.9553 39.7358 35.9202C39.7812 35.9042 39.8249 35.8867 39.8703 35.8691C39.948 35.8388 40.0274 35.8101 40.1052 35.7781C40.1667 35.7542 40.2283 35.7286 40.2883 35.7047C40.3498 35.6792 40.4098 35.6552 40.4713 35.6297C40.5491 35.5978 40.6269 35.5642 40.703 35.5291C40.7468 35.51 40.7905 35.4908 40.8326 35.4717C40.925 35.4302 41.0173 35.3871 41.1081 35.344C41.1356 35.3312 41.1631 35.3184 41.1923 35.3041C41.2976 35.2546 41.4013 35.2035 41.505 35.1508C41.5196 35.1429 41.5342 35.1365 41.5487 35.1285C41.6638 35.071 41.7772 35.012 41.8906 34.9513C41.8955 34.9497 41.8987 34.9465 41.9036 34.9449C42.6197 34.5618 43.3147 34.1245 43.9822 33.6329C43.9838 33.6313 43.9871 33.6297 43.9887 33.6281C44.094 33.5499 44.1993 33.4717 44.303 33.3903C44.3127 33.3823 44.3224 33.3743 44.3338 33.3663C44.4294 33.2913 44.525 33.2163 44.6189 33.1397C44.64 33.1237 44.6594 33.1061 44.6789 33.0902C44.7631 33.0215 44.8474 32.9513 44.93 32.8811C44.9624 32.8539 44.9948 32.8252 45.0256 32.7981C45.0969 32.7358 45.1682 32.6752 45.2378 32.6129C45.288 32.5682 45.3367 32.5235 45.3853 32.4773C45.4387 32.4294 45.4906 32.3815 45.544 32.332C45.6412 32.241 45.7384 32.1468 45.834 32.0543C45.8389 32.0495 45.8438 32.0463 45.847 32.0415C45.8519 32.0367 45.8551 32.0319 45.86 32.0287C45.9555 31.9346 46.0495 31.8388 46.1419 31.743C46.1921 31.6919 46.2391 31.6393 46.2877 31.5882C46.333 31.5387 46.38 31.4908 46.4254 31.4413C46.4886 31.3727 46.5518 31.3025 46.615 31.2322C46.6425 31.2003 46.6717 31.17 46.6992 31.1381C46.7721 31.0551 46.8434 30.9721 46.9131 30.8891C46.9293 30.8699 46.9455 30.8508 46.9617 30.8316C47.0394 30.7374 47.1172 30.6448 47.1917 30.5491C47.1998 30.5395 47.2079 30.5299 47.216 30.5203C47.2987 30.4182 47.378 30.3144 47.4574 30.2107C47.4574 30.2091 47.4607 30.2059 47.4623 30.2043C47.9613 29.5467 48.4052 28.8619 48.7957 28.1564C48.7973 28.1532 48.7989 28.1484 48.8022 28.1452C48.8637 28.0335 48.9237 27.9202 48.9836 27.8069C48.9917 27.7925 48.9982 27.7781 49.0047 27.7654C49.0581 27.6632 49.11 27.5595 49.1602 27.4557C49.1732 27.4286 49.1861 27.4014 49.1991 27.3743C49.2428 27.2833 49.2866 27.1923 49.3287 27.1014C49.3481 27.0599 49.3676 27.0168 49.387 26.9737C49.4211 26.897 49.4551 26.8204 49.4891 26.7438C49.515 26.6848 49.5393 26.6257 49.5652 26.565C49.5912 26.5044 49.6155 26.4437 49.6414 26.3831C49.6722 26.3065 49.703 26.2298 49.7321 26.1532C49.7499 26.1085 49.7661 26.0638 49.784 26.0191C49.8196 25.9266 49.8536 25.8324 49.8877 25.7398C49.899 25.7111 49.9087 25.6808 49.9201 25.652C49.9573 25.5451 49.9946 25.4365 50.0302 25.328C50.0351 25.312 50.0399 25.2961 50.0464 25.2801C50.0853 25.1604 50.1242 25.0391 50.1598 24.9178C50.1598 24.913 50.1631 24.9082 50.1647 24.9034C50.3964 24.1325 50.573 23.3408 50.6929 22.5283C50.6929 22.5251 50.6929 22.5219 50.6929 22.5172C50.7107 22.3895 50.7285 22.2618 50.7447 22.1325C50.7463 22.1197 50.748 22.1053 50.7496 22.0926C50.7642 21.9729 50.7771 21.8547 50.7885 21.735C50.7917 21.7095 50.7933 21.684 50.7949 21.6584C50.8047 21.5515 50.8144 21.4429 50.8225 21.3344C50.8257 21.2913 50.8273 21.2482 50.8306 21.2051C50.8371 21.1125 50.8435 21.0215 50.8468 20.929C50.85 20.8603 50.8516 20.7933 50.8549 20.7247C50.8581 20.656 50.8614 20.5874 50.863 20.5172C50.8662 20.3783 50.8678 20.2378 50.8678 20.099C50.8678 19.9377 50.8646 19.7765 50.8597 19.6169L50.8743 19.6089Z" fill="#0EB6BF"/>
<path d="M44.5864 1.49562C44.3062 1.33441 43.9465 1.42858 43.7828 1.70631C43.6419 1.94574 43.6954 2.24422 43.8963 2.42459L42.3782 5.00081C41.3202 5.36314 35.7501 9.78452 33.5111 12.8284C32.7302 13.8899 31.7467 15.4158 30.8443 17.1477C30.6321 17.2881 28.6701 18.5635 27.1407 18.7199C27.1131 18.7231 27.0823 18.7311 27.0515 18.7406C27.4987 17.4174 27.5165 16.1995 27.4128 16.1405C27.2848 16.067 25.7101 17.0184 24.6861 18.5124C23.7221 19.9186 21.7585 21.6568 21.8719 23.4812C21.8719 23.4812 21.8768 23.8771 21.7553 24.0048C21.6338 24.1325 21.4863 24.3033 21.4863 24.3033C21.4863 24.3033 21.6014 24.656 22.1911 25.0072C22.7938 25.336 23.1616 25.2594 23.1616 25.2594C23.1616 25.2594 23.2393 25.0471 23.2912 24.8811C23.343 24.7151 23.6946 24.522 23.6946 24.522C23.8048 24.4693 23.9085 24.407 24.0089 24.34C24.4982 24.2139 25.6112 23.9346 26.4618 23.7861C26.6967 23.7446 26.9106 23.7143 27.0872 23.6999C28.1921 23.6153 28.3687 24.4374 28.3687 24.4374C28.3363 24.747 28.3153 25.0535 28.3104 25.3552C28.2942 25.601 28.244 25.9745 28.0933 26.1325C27.86 26.3767 27.5749 26.7087 27.5749 26.7087C27.5749 26.7087 27.7968 27.3887 28.9325 28.0654C30.0942 28.7007 30.8022 28.5523 30.8022 28.5523C30.8022 28.5523 30.9529 28.1437 31.0533 27.8228C31.1181 27.6153 31.4227 27.3871 31.6317 27.2514C31.899 27.095 32.1631 26.9226 32.4256 26.7358C32.5568 26.7039 33.2616 26.5794 33.6893 27.4717C33.7638 27.6297 33.8432 27.8292 33.9226 28.0495C34.2142 28.8524 34.5204 29.9425 34.6517 30.4246C34.642 30.5443 34.6403 30.6624 34.6468 30.7821C34.6468 30.7821 34.6517 31.178 34.5302 31.3057C34.4087 31.4334 34.2612 31.6042 34.2612 31.6042C34.2612 31.6042 34.3763 31.9569 34.966 32.3081C35.5687 32.6369 35.9365 32.5603 35.9365 32.5603C35.9365 32.5603 36.0142 32.348 36.0661 32.182C36.1179 32.016 36.4695 31.8228 36.4695 31.8228C38.1334 31.0152 38.6907 28.4709 39.4506 26.9497C40.259 25.3328 40.3157 23.5132 40.1877 23.4398C40.084 23.3807 39.0196 24 38.0751 25.0391C38.0686 25.0072 38.0621 24.9785 38.0508 24.9529C37.4432 23.5962 37.576 21.3504 37.5987 21.0232C38.6826 19.3887 39.5413 17.7845 40.0905 16.5858C41.6621 13.1604 42.7946 6.20432 42.5888 5.11892L42.605 5.09179L44.1069 2.54271C44.3645 2.62411 44.6545 2.52355 44.7954 2.28253C44.9575 2.00639 44.8635 1.65204 44.5816 1.49083L44.5864 1.49562Z" fill="#0EB6BF"/>
<path d="M1.5035 22.4006H15.999C15.9876 22.3224 15.9763 22.2426 15.9666 22.1644C15.965 22.15 15.9633 22.1373 15.9617 22.1229C15.9471 21.9984 15.9326 21.8739 15.9212 21.7494C15.918 21.7223 15.9164 21.6935 15.9131 21.6664C15.9034 21.5547 15.8937 21.4429 15.884 21.3312C15.8807 21.2849 15.8775 21.2386 15.8759 21.1939C15.8694 21.0982 15.8629 21.004 15.858 20.9082C15.8548 20.8348 15.8516 20.763 15.8499 20.6895C15.8467 20.6193 15.8435 20.5491 15.8418 20.4789C15.8354 20.1883 15.8354 19.8963 15.8418 19.6057C15.8435 19.5355 15.8467 19.4653 15.8499 19.3951C15.8532 19.3216 15.8548 19.2498 15.858 19.1764C15.8629 19.0806 15.8694 18.9864 15.8759 18.8907C15.8791 18.8444 15.8807 18.7981 15.884 18.7534C15.8921 18.6417 15.9018 18.5299 15.9131 18.4182C15.9164 18.3911 15.918 18.3623 15.9212 18.3352C15.9342 18.2107 15.9471 18.0862 15.9617 17.9617C15.9633 17.9473 15.965 17.9346 15.9666 17.9202C15.9763 17.8404 15.9876 17.7622 15.999 17.684H1.5035C0.672363 17.684 0 18.348 0 19.1652V20.921C0 21.7398 0.673983 22.4022 1.5035 22.4022V22.4006Z" fill="#0EB6BF"/>
<path d="M1.5035 14.233H16.8317C16.8415 14.2075 16.8512 14.1804 16.8593 14.1548C16.8949 14.0559 16.9306 13.9585 16.9678 13.8611C16.9857 13.8148 17.0035 13.7686 17.0213 13.7223C17.0521 13.6409 17.0845 13.561 17.1169 13.4796C17.1428 13.4158 17.1687 13.3535 17.1947 13.2913C17.2206 13.229 17.2481 13.1668 17.274 13.1045C17.3081 13.0247 17.3437 12.9449 17.3794 12.8667C17.4004 12.822 17.4199 12.7773 17.4409 12.7326C17.4847 12.6385 17.53 12.5443 17.5754 12.4501C17.59 12.4214 17.6029 12.3927 17.6175 12.3639C17.671 12.2554 17.7245 12.1484 17.7795 12.0415C17.7876 12.0271 17.7941 12.0112 17.8022 11.9968C17.8638 11.8787 17.927 11.7622 17.9902 11.6456C17.9918 11.6409 17.995 11.6377 17.9966 11.6329C18.3984 10.9034 18.8569 10.1963 19.3721 9.51636H1.5035C0.672363 9.51636 0 10.1804 0 10.9976V12.7534C0 13.5722 0.673983 14.2346 1.5035 14.2346V14.233Z" fill="#0EB6BF"/>
<path d="M18.0015 28.4517C18.0015 28.4517 17.9966 28.4421 17.9934 28.4389C17.9286 28.3224 17.867 28.2059 17.8055 28.0878C17.7974 28.0734 17.7893 28.0575 17.7828 28.0431C17.7277 27.9361 17.6726 27.8292 17.6208 27.7207C17.6062 27.6919 17.5932 27.6632 17.5786 27.6345C17.5333 27.5403 17.4879 27.4461 17.4442 27.3504C17.4231 27.3057 17.4037 27.261 17.3826 27.2163C17.347 27.1365 17.3113 27.0567 17.2773 26.9768C17.2497 26.9146 17.2238 26.8523 17.1979 26.7901C17.172 26.7263 17.1444 26.664 17.1185 26.6002C17.0861 26.5203 17.0537 26.4389 17.0229 26.3591C17.0051 26.3128 16.9873 26.2666 16.9695 26.2203C16.9322 26.1229 16.8966 26.0255 16.8609 25.9266C16.8512 25.901 16.8415 25.8739 16.8334 25.8484H1.5035C0.672363 25.8484 0 26.5124 0 27.3296V29.0854C0 29.9042 0.673983 30.5666 1.5035 30.5666H19.3754C18.8618 29.8867 18.4033 29.1796 17.9999 28.4501L18.0015 28.4517Z" fill="#0EB6BF"/>
</svg>
