<svg width="40" height="36" viewBox="0 0 40 36" fill="none" xmlns="http://www.w3.org/2000/svg">
<g clip-path="url(#clip0_19_301)">
<path d="M33.1653 30.2446C33.2123 30.1919 33.261 30.1409 33.308 30.0882C33.3735 30.015 33.439 29.9402 33.5045 29.8654C33.5331 29.8313 33.5633 29.799 33.5919 29.765C33.6674 29.6766 33.7413 29.5881 33.8135 29.4997C33.8303 29.4793 33.8471 29.4589 33.8639 29.4385C33.9445 29.3381 34.0251 29.2395 34.1024 29.1374C34.1108 29.1272 34.1192 29.117 34.1276 29.1068C34.2132 28.998 34.2955 28.8874 34.3778 28.7769C34.3778 28.7752 34.3811 28.7718 34.3828 28.7701C34.9001 28.0693 35.3602 27.3397 35.7649 26.588C35.7666 26.5846 35.7683 26.5795 35.7716 26.5761C35.8354 26.457 35.8976 26.3363 35.9597 26.2155C35.9681 26.2002 35.9748 26.1849 35.9815 26.1713C36.037 26.0625 36.0907 25.9519 36.1428 25.8414C36.1562 25.8124 36.1696 25.7835 36.1831 25.7546C36.2284 25.6577 36.2737 25.5607 36.3174 25.4638C36.3376 25.4196 36.3577 25.3736 36.3779 25.3277C36.4131 25.2461 36.4484 25.1644 36.4837 25.0828C36.5105 25.0199 36.5357 24.957 36.5626 24.8923C36.5895 24.8277 36.6147 24.7631 36.6415 24.6984C36.6734 24.6168 36.7053 24.5352 36.7356 24.4535C36.754 24.4059 36.7708 24.3583 36.7893 24.3107C36.8263 24.212 36.8615 24.1117 36.8968 24.013C36.9085 23.9824 36.9186 23.9501 36.9304 23.9195C36.969 23.8055 37.0076 23.6899 37.0446 23.5742C37.0496 23.5572 37.0563 23.5402 37.0614 23.5232C37.1017 23.3957 37.142 23.2664 37.1789 23.1371C37.1789 23.132 37.1823 23.1269 37.1839 23.1218C37.4241 22.3004 37.6071 21.4568 37.7314 20.5911C37.7314 20.5877 37.7314 20.5843 37.7314 20.5792C37.7499 20.4431 37.7684 20.3071 37.7851 20.1693C37.7868 20.1557 37.7885 20.1404 37.7902 20.1268C37.8053 19.9992 37.8187 19.8734 37.8305 19.7458C37.8338 19.7186 37.8355 19.6914 37.8372 19.6642C37.8473 19.5502 37.8574 19.4346 37.8658 19.3189C37.8691 19.273 37.8708 19.2271 37.8742 19.1812C37.8809 19.0825 37.8876 18.9856 37.8909 18.8869C37.8943 18.8138 37.896 18.7424 37.8993 18.6692C37.9027 18.5961 37.9061 18.523 37.9077 18.4481C37.9111 18.3002 37.9128 18.1505 37.9128 18.0025C37.9128 17.8308 37.9094 17.659 37.9044 17.4889C37.9044 17.4311 37.901 17.3733 37.8977 17.3154C37.8926 17.2032 37.8876 17.0892 37.8825 16.977C37.8792 16.909 37.8758 16.8409 37.8708 16.7712C37.8641 16.664 37.8557 16.5586 37.8456 16.4515C37.8338 16.3171 37.8221 16.1844 37.807 16.0518C37.7986 15.9752 37.7902 15.897 37.7818 15.8205C37.77 15.7184 37.7566 15.6181 37.7415 15.516C37.7331 15.4599 37.7264 15.4021 37.718 15.346C37.7029 15.2371 37.6861 15.1283 37.6676 15.0211C37.6609 14.9837 37.6542 14.9463 37.6491 14.9106C37.5853 14.533 37.5081 14.1605 37.4207 13.7932C37.4123 13.7557 37.4039 13.72 37.3939 13.6826C37.367 13.5721 37.3384 13.4632 37.3099 13.3527C37.2981 13.305 37.2847 13.2574 37.2713 13.2098C37.2427 13.1044 37.2142 12.9989 37.1839 12.8952C37.1688 12.8441 37.1537 12.7931 37.1369 12.7421C37.0899 12.5856 37.0412 12.4309 36.9891 12.2778C36.9589 12.1876 36.9287 12.0958 36.8968 12.0057C36.875 11.9427 36.8514 11.8815 36.8296 11.8186C36.7927 11.7148 36.754 11.6128 36.7154 11.509C36.6969 11.4597 36.6785 11.4104 36.6583 11.3628C36.6063 11.2301 36.5525 11.0975 36.4971 10.9648C36.4904 10.9461 36.482 10.9291 36.4753 10.9104C35.6104 8.86436 34.3526 6.9476 32.7035 5.27745C32.6716 5.24514 32.638 5.21282 32.6044 5.18051C32.5859 5.1635 32.5691 5.14479 32.5507 5.12779C30.9284 3.52227 29.0778 2.29432 27.1046 1.44394C27.0844 1.43544 27.0626 1.42693 27.0425 1.41843C26.9064 1.3606 26.7704 1.30278 26.6327 1.24835C26.5823 1.22794 26.5303 1.20923 26.4799 1.18883C26.3724 1.14631 26.2633 1.10549 26.1558 1.06637C26.0735 1.03576 25.9912 1.00855 25.9089 0.979632C25.83 0.95242 25.7511 0.925208 25.6721 0.897996C25.5613 0.860579 25.4505 0.826564 25.3379 0.790848C25.2859 0.775541 25.2338 0.758533 25.1818 0.743226C25.0474 0.702408 24.9131 0.664992 24.777 0.627575C24.7468 0.619071 24.7149 0.610567 24.6847 0.602063C24.5335 0.561245 24.3807 0.523828 24.2279 0.486412C24.2111 0.48301 24.196 0.477908 24.1792 0.474506C24.018 0.43709 23.8551 0.399673 23.6905 0.367358C23.6821 0.365658 23.6737 0.363957 23.6653 0.362256C23.4991 0.328241 23.3311 0.295927 23.1632 0.267014C23.1565 0.267014 23.1498 0.265313 23.1431 0.263612C22.9768 0.234699 22.8089 0.209188 22.6409 0.183676C22.6309 0.183676 22.6225 0.180275 22.6124 0.180275C22.4495 0.156464 22.2849 0.136055 22.1203 0.117347C22.1052 0.115646 22.0884 0.113945 22.0733 0.112244C21.9155 0.0952368 21.7576 0.0799299 21.5997 0.0663238C21.5762 0.0646231 21.5527 0.0629223 21.5292 0.0612215C21.3781 0.0493162 21.2269 0.0391116 21.0741 0.0306078C21.0439 0.0306078 21.012 0.0272063 20.9818 0.0255056C20.8357 0.0187025 20.6879 0.0136002 20.5401 0.0101987C20.5065 0.0101987 20.4746 0.0101987 20.441 0.0101987C20.3386 0.00849796 20.2361 0.00509644 20.1337 0.00509644C17.5912 0.00509644 15.1746 0.545938 12.9881 1.52047C12.9881 1.52047 12.9865 1.52047 12.9848 1.52047C12.8236 1.59191 12.6623 1.66674 12.5028 1.74327C12.4995 1.74327 12.4961 1.74668 12.4944 1.74838C12.3349 1.82491 12.1753 1.90485 12.0192 1.98648C12.0057 1.99329 11.994 2.00009 11.9822 2.00689C11.8529 2.07492 11.7253 2.14295 11.5977 2.21438C11.5389 2.2467 11.4801 2.28071 11.4213 2.31473C11.3407 2.36065 11.2618 2.40657 11.1829 2.45419C11.1123 2.49501 11.0435 2.53753 10.9746 2.58005C10.9091 2.62087 10.8436 2.66168 10.7781 2.7025C10.501 2.87598 10.2273 3.05796 9.95862 3.25015C9.90488 3.28756 9.85115 3.32498 9.79909 3.3641C9.72184 3.42022 9.64627 3.47635 9.5707 3.53247C9.5136 3.57499 9.45482 3.61921 9.39773 3.66343C9.32719 3.71786 9.25498 3.77228 9.18445 3.82841C9.10216 3.89303 9.02156 3.95936 8.94095 4.02569C8.86034 4.09202 8.78141 4.15835 8.70248 4.22638C8.61684 4.29952 8.53287 4.37095 8.4489 4.44578C8.4002 4.49 8.3515 4.53422 8.3028 4.57674C8.21884 4.65328 8.13487 4.72981 8.05258 4.80634C8.0106 4.84546 7.97029 4.88288 7.92831 4.922C7.69824 5.14139 7.47489 5.36589 7.25826 5.5972C7.20788 5.65162 7.15918 5.70605 7.1088 5.75877C7.0601 5.81149 7.0114 5.86422 6.9627 5.91864C6.8972 5.99177 6.83339 6.06661 6.76789 6.13974C6.73767 6.17376 6.70744 6.20777 6.67889 6.24179C6.605 6.32852 6.53111 6.41696 6.4589 6.5054C6.44042 6.52751 6.42363 6.54792 6.40516 6.57003C6.32455 6.66868 6.24562 6.76732 6.16837 6.86767C6.15998 6.87957 6.1499 6.88978 6.1415 6.90168C6.05754 7.01053 5.97525 7.11938 5.89296 7.22993C5.89128 7.23333 5.88792 7.23503 5.88625 7.23843C5.36901 7.93744 4.90887 8.66707 4.50583 9.41881C4.50416 9.42391 4.5008 9.42731 4.49912 9.43241C4.4353 9.55147 4.37317 9.67052 4.31271 9.79127C4.30431 9.80658 4.2976 9.82189 4.2892 9.83719C4.23378 9.94604 4.18004 10.0566 4.12798 10.1654C4.11455 10.1944 4.09944 10.225 4.086 10.2539C4.04066 10.3508 3.99532 10.4461 3.95333 10.543C3.93318 10.5889 3.91303 10.6349 3.89288 10.6808C3.85761 10.7624 3.82235 10.8423 3.78708 10.924C3.76021 10.9869 3.73334 11.0515 3.70815 11.1145C3.68128 11.1791 3.65609 11.2437 3.6309 11.3067C3.599 11.3883 3.56709 11.4716 3.53518 11.5533C3.51671 11.6009 3.49991 11.6468 3.48144 11.6944C3.4445 11.7931 3.40923 11.8934 3.37397 11.9938C3.36389 12.0244 3.35213 12.055 3.34206 12.0873C3.30175 12.203 3.26481 12.3186 3.22618 12.4343C3.22115 12.4513 3.21611 12.4666 3.21107 12.4836C3.17077 12.6111 3.13046 12.7404 3.09352 12.8696C3.09352 12.8748 3.09016 12.8799 3.08848 12.885C2.84833 13.7047 2.66529 14.55 2.5427 15.4157C2.5427 15.4191 2.5427 15.4242 2.5427 15.4276C2.52422 15.5637 2.50575 15.6997 2.48896 15.8375C2.48728 15.8511 2.4856 15.8664 2.48392 15.88C2.46881 16.0059 2.45537 16.1334 2.44362 16.261C2.44026 16.2899 2.43858 16.3171 2.4369 16.346C2.42682 16.46 2.41675 16.5739 2.40835 16.6879C2.40499 16.7355 2.40331 16.7814 2.39995 16.829C2.39324 16.926 2.3882 17.0229 2.38316 17.1199C2.3798 17.1947 2.37812 17.2678 2.37476 17.3426C2.3714 17.4141 2.36805 17.4855 2.36637 17.5586C2.35965 17.8563 2.35965 18.1539 2.36637 18.4498C2.36805 18.5213 2.3714 18.5927 2.37476 18.6658C2.37812 18.7407 2.3798 18.8138 2.38316 18.8886C2.3882 18.9856 2.39491 19.0825 2.39995 19.1795C2.40331 19.2271 2.40499 19.273 2.40835 19.3206C2.41675 19.4346 2.42682 19.5485 2.4369 19.6625C2.44026 19.6914 2.44194 19.7186 2.44362 19.7475C2.45537 19.8751 2.46881 20.0026 2.48392 20.1285C2.48392 20.1421 2.48728 20.1574 2.48896 20.171C2.50575 20.3088 2.52254 20.4448 2.5427 20.5809C2.5427 20.5843 2.5427 20.5894 2.5427 20.5928C2.66529 21.4568 2.85001 22.3021 3.08848 23.1235L3.09352 23.1388C3.13214 23.2681 3.17077 23.3974 3.21107 23.5249C3.21611 23.5419 3.22283 23.5589 3.22786 23.5759C3.26481 23.6916 3.30343 23.8072 3.34206 23.9229C3.35213 23.9535 3.36389 23.9841 3.37397 24.0164C3.40923 24.1168 3.4445 24.2171 3.48144 24.3158C3.49824 24.3634 3.51671 24.411 3.53518 24.4569C3.56709 24.5386 3.59732 24.6219 3.6309 24.7035C3.65609 24.7682 3.68296 24.8328 3.70815 24.8974C3.73502 24.9604 3.76021 25.025 3.78708 25.0879C3.82067 25.1695 3.85593 25.2512 3.89288 25.3311C3.91303 25.377 3.93318 25.423 3.95333 25.4689C3.997 25.5658 4.04234 25.6628 4.086 25.758C4.09944 25.7869 4.11287 25.8175 4.12798 25.8465C4.18004 25.957 4.23378 26.0658 4.2892 26.1747C4.2976 26.19 4.30431 26.2053 4.31271 26.2206C4.37317 26.3414 4.4353 26.4604 4.49912 26.5795C4.5008 26.5846 4.50416 26.588 4.50583 26.5931C4.90887 27.3448 5.36901 28.0744 5.88625 28.7752C5.88792 28.7769 5.8896 28.7803 5.89128 28.782C5.97357 28.8925 6.05586 29.0031 6.1415 29.1119C6.1499 29.1238 6.1583 29.134 6.16837 29.1459C6.24562 29.2463 6.32623 29.3449 6.40516 29.4453C6.42195 29.4657 6.44042 29.4878 6.45722 29.5082C6.52943 29.5966 6.60332 29.6851 6.67889 29.7735C6.70744 29.8075 6.73767 29.8415 6.76789 29.8756C6.83171 29.9504 6.8972 30.0235 6.9627 30.0967C7.0114 30.1511 7.0601 30.2038 7.1088 30.2565C7.1575 30.3109 7.2062 30.3637 7.25658 30.4181C7.35566 30.5235 7.45474 30.6273 7.55718 30.7293C7.55886 30.731 7.56222 30.7344 7.5639 30.7361C7.56558 30.7378 7.56894 30.7412 7.57061 30.7429C7.67137 30.845 7.77549 30.947 7.87793 31.0474C7.92999 31.0984 7.98373 31.1477 8.03747 31.197C8.08953 31.2464 8.14327 31.2974 8.19533 31.345C8.26754 31.4113 8.33975 31.476 8.41364 31.5406C8.44723 31.5712 8.48081 31.6018 8.51608 31.6324C8.60172 31.7073 8.68905 31.7804 8.77469 31.8535C8.79653 31.8722 8.81836 31.891 8.84019 31.908C8.93759 31.9896 9.03499 32.0695 9.13407 32.1478C9.14583 32.1563 9.1559 32.1665 9.16766 32.175C9.27514 32.26 9.38261 32.3434 9.49177 32.4267C9.49513 32.4284 9.49681 32.4318 9.50017 32.4335C10.1904 32.9573 10.9108 33.4233 11.6531 33.8315C11.6581 33.8349 11.6631 33.8366 11.6665 33.84C11.7841 33.9047 11.9016 33.9676 12.0192 34.0288C12.0343 34.0373 12.0511 34.0441 12.0662 34.0526C12.1737 34.1087 12.2811 34.1615 12.3886 34.2159C12.4172 34.2295 12.4474 34.2448 12.4759 34.2584C12.57 34.3043 12.6657 34.3486 12.7614 34.3928C12.8068 34.4132 12.8521 34.4336 12.8975 34.454C12.9764 34.4897 13.057 34.5254 13.1359 34.5594C13.1997 34.5867 13.2619 34.6139 13.3257 34.6411C13.3895 34.6683 13.4516 34.6938 13.5154 34.7193C13.5961 34.7516 13.6783 34.784 13.7606 34.8163C13.806 34.835 13.853 34.852 13.8983 34.869C13.9974 34.9064 14.0965 34.9421 14.1956 34.9778C14.2258 34.988 14.256 34.9999 14.2863 35.0102C14.4005 35.051 14.5147 35.0884 14.6305 35.1275C14.6473 35.1326 14.6624 35.1377 14.6792 35.1428C14.8069 35.1836 14.9345 35.2244 15.0621 35.2636C15.0672 35.2636 15.0705 35.267 15.0755 35.267C15.8867 35.5102 16.7213 35.6956 17.5761 35.8214C17.5794 35.8214 17.5828 35.8214 17.5845 35.8214C17.7188 35.8418 17.8548 35.8588 17.9909 35.8758C18.0043 35.8758 18.0177 35.8792 18.0312 35.8809C18.1571 35.8962 18.2831 35.9099 18.409 35.9218C18.4359 35.9252 18.4628 35.9269 18.4896 35.9286C18.6038 35.9388 18.7163 35.949 18.8305 35.9575C18.8742 35.9609 18.9195 35.9626 18.9632 35.966C19.0606 35.9728 19.158 35.9796 19.2571 35.983C19.3276 35.9864 19.3965 35.9881 19.467 35.9915C19.5409 35.9949 19.6148 35.9983 19.6887 36C19.8297 36.0034 19.9725 36.0051 20.1135 36.0051C20.1186 36.0051 20.1219 36.0051 20.127 36.0051C20.132 36.0051 20.1371 36.0051 20.1421 36.0051C20.2832 36.0051 20.4259 36.0034 20.567 36C20.6409 35.9983 20.7164 35.9949 20.7903 35.9915C20.8608 35.9881 20.9297 35.9864 21.0002 35.983C21.0976 35.9779 21.195 35.9711 21.2924 35.966C21.3378 35.9626 21.3814 35.9609 21.4268 35.9575C21.541 35.949 21.6535 35.9388 21.7677 35.9286C21.7946 35.9269 21.8214 35.9235 21.8483 35.9218C21.9742 35.9099 22.1019 35.8962 22.2261 35.8809C22.2396 35.8809 22.253 35.8775 22.2648 35.8758C22.4008 35.8588 22.5368 35.8418 22.6712 35.8214C22.6745 35.8214 22.6762 35.8214 22.6796 35.8214C23.5343 35.6973 24.369 35.5102 25.1801 35.267C25.1851 35.267 25.1902 35.2636 25.1952 35.2619C25.3228 35.2227 25.4505 35.1836 25.5781 35.1428C25.5949 35.1377 25.61 35.1326 25.6268 35.1275C25.7427 35.0901 25.8569 35.051 25.971 35.0102C26.0013 34.9999 26.0315 34.988 26.0617 34.9778C26.1608 34.9421 26.2599 34.9064 26.359 34.869C26.406 34.852 26.4513 34.8333 26.4984 34.8146C26.579 34.7822 26.6613 34.7516 26.7419 34.7176C26.8057 34.6921 26.8695 34.6649 26.9316 34.6394C26.9954 34.6122 27.0576 34.5867 27.1214 34.5594C27.202 34.5254 27.2826 34.4897 27.3615 34.4523C27.4069 34.4319 27.4522 34.4115 27.4959 34.3911C27.5916 34.3469 27.6873 34.3009 27.7814 34.255C27.8099 34.2414 27.8385 34.2278 27.8687 34.2125C27.9778 34.1598 28.0853 34.1053 28.1928 34.0492C28.2079 34.0407 28.223 34.0339 28.2381 34.0254C28.3574 33.9642 28.4749 33.9013 28.5925 33.8366C28.5975 33.8349 28.6009 33.8315 28.6059 33.8298C29.3482 33.4216 30.0686 32.9556 30.7605 32.4318C30.7622 32.4301 30.7655 32.4284 30.7672 32.4267C30.8764 32.3434 30.9855 32.26 31.093 32.1733C31.1031 32.1648 31.1132 32.1563 31.1249 32.1478C31.224 32.0678 31.3231 31.9879 31.4205 31.9063C31.4423 31.8893 31.4625 31.8705 31.4826 31.8535C31.5699 31.7804 31.6573 31.7056 31.7429 31.6307C31.7765 31.6018 31.8101 31.5712 31.842 31.5423C31.9159 31.476 31.9898 31.4113 32.062 31.345C32.114 31.2974 32.1644 31.2498 32.2148 31.2004C32.2702 31.1494 32.324 31.0984 32.3794 31.0457C32.4801 30.9487 32.5809 30.8484 32.68 30.7497C32.685 30.7446 32.6901 30.7412 32.6934 30.7361C32.6985 30.731 32.7018 30.7259 32.7068 30.7225C32.8059 30.6222 32.9033 30.5201 32.9991 30.4181C33.0511 30.3637 33.0998 30.3075 33.1502 30.2531L33.1653 30.2446ZM35.1033 18.7016C35.1033 18.7135 35.1033 18.7271 35.1033 18.739C35.0915 18.972 35.0764 19.205 35.0546 19.4363C35.0546 19.4448 35.0546 19.4533 35.0529 19.4635C35.031 19.7016 35.0025 19.938 34.9689 20.1744V20.1778C34.8665 20.8989 34.712 21.6133 34.5071 22.314C34.5071 22.3157 34.5071 22.3174 34.5054 22.3208C34.4382 22.5487 34.366 22.7749 34.2888 22.9994C34.2837 23.013 34.2804 23.0249 34.2753 23.0385C34.2015 23.2511 34.1225 23.462 34.0386 23.6729C34.0285 23.6984 34.0167 23.7256 34.0067 23.7511C33.9277 23.9467 33.8438 24.1406 33.7564 24.3328C33.738 24.3719 33.7195 24.411 33.7027 24.4501C33.6204 24.6287 33.5331 24.8056 33.4424 24.9825C33.4172 25.0318 33.3903 25.0828 33.3651 25.1321C33.2778 25.2971 33.1871 25.4621 33.0948 25.6254C33.0629 25.6798 33.031 25.7359 32.9991 25.7903C32.905 25.9485 32.8093 26.105 32.7085 26.2597C32.6733 26.3142 32.638 26.3686 32.6027 26.4213C32.4986 26.5778 32.3911 26.7342 32.282 26.8873C32.2484 26.9332 32.2148 26.9809 32.1812 27.0268C32.062 27.1901 31.9394 27.3499 31.8118 27.5098C31.7849 27.5438 31.758 27.5778 31.7312 27.6118C31.5901 27.7853 31.4457 27.9571 31.2962 28.1255C31.2811 28.1425 31.266 28.1612 31.2509 28.1782C31.0846 28.3653 30.9116 28.5473 30.7353 28.7275C30.5573 28.9078 30.3759 29.0813 30.1929 29.2497C30.1761 29.265 30.1576 29.2803 30.1408 29.2956C29.9746 29.447 29.805 29.5932 29.6337 29.7361C29.6001 29.7633 29.5665 29.7905 29.5329 29.8177C29.3751 29.9453 29.2172 30.0711 29.056 30.1919C29.0106 30.2259 28.9653 30.2599 28.9183 30.2939C28.7655 30.4062 28.6126 30.515 28.4565 30.6188C28.4044 30.6545 28.3507 30.6902 28.2969 30.7242C28.1441 30.8246 27.9879 30.9232 27.8317 31.0185C27.778 31.0508 27.7243 31.0831 27.6689 31.1154C27.5076 31.2107 27.3464 31.3025 27.1818 31.3909C27.1331 31.4181 27.0844 31.4437 27.0341 31.4692C26.8594 31.561 26.6848 31.6477 26.5084 31.7328C26.4698 31.7515 26.4312 31.7702 26.3926 31.7872C26.2028 31.8756 26.0114 31.9607 25.8182 32.0406C25.793 32.0508 25.7662 32.0627 25.741 32.0729C25.5344 32.158 25.3245 32.2379 25.1146 32.3127C25.1028 32.3178 25.0894 32.3213 25.0776 32.3264C24.856 32.4046 24.6326 32.4777 24.4076 32.5457C24.4059 32.5457 24.4042 32.5457 24.4009 32.5474C23.7073 32.7549 23.002 32.9114 22.2916 33.0152H22.2883C22.0548 33.0492 21.8197 33.0781 21.5846 33.1002C21.5762 33.1002 21.5678 33.1002 21.5578 33.1019C21.3277 33.124 21.0993 33.141 20.8692 33.1512C20.8558 33.1512 20.8441 33.1512 20.8306 33.1512C20.6005 33.1614 20.3705 33.1682 20.1404 33.1682C19.9103 33.1682 19.6803 33.1614 19.4502 33.1512C19.4368 33.1512 19.425 33.1512 19.4116 33.1512C19.1815 33.1393 18.9514 33.124 18.7231 33.1019C18.7147 33.1019 18.7046 33.1019 18.6962 33.1002C18.4611 33.0781 18.2277 33.0492 17.9942 33.0152C17.9925 33.0152 17.9909 33.0152 17.9892 33.0152C17.2788 32.9114 16.5735 32.7549 15.8799 32.5474C15.8766 32.5474 15.8749 32.5475 15.8716 32.5457C15.6465 32.4777 15.4248 32.4046 15.2032 32.3264C15.1897 32.3213 15.178 32.3178 15.1646 32.3127C14.9546 32.2379 14.7464 32.158 14.5398 32.0746C14.513 32.0644 14.4878 32.0525 14.4609 32.0423C14.2678 31.9624 14.078 31.879 13.8883 31.7906C13.848 31.7719 13.8093 31.7532 13.7707 31.7345C13.5944 31.6511 13.4197 31.5627 13.2468 31.4726C13.1964 31.4471 13.1477 31.4198 13.099 31.3926C12.9361 31.3042 12.7732 31.2124 12.6136 31.1188C12.5582 31.0865 12.5045 31.0542 12.4508 31.0202C12.2946 30.9249 12.1401 30.828 11.9873 30.7276C11.9335 30.6919 11.8798 30.6562 11.8277 30.6205C11.6732 30.515 11.5204 30.4079 11.3676 30.2956C11.3206 30.2616 11.2752 30.2276 11.2282 30.1936C11.0687 30.0728 10.9091 29.9487 10.7529 29.8211C10.7194 29.7939 10.6858 29.7667 10.6522 29.7378C10.4809 29.5949 10.313 29.4487 10.1467 29.2973C10.1299 29.282 10.1114 29.2667 10.0946 29.2497C9.9116 29.0813 9.73023 28.9078 9.55223 28.7275C9.37422 28.5473 9.20292 28.3653 9.03667 28.1782C9.02156 28.1612 9.00644 28.1425 8.98965 28.1255C8.84019 27.9571 8.69577 27.787 8.55638 27.6135C8.52951 27.5795 8.50264 27.5455 8.47409 27.5115C8.34814 27.3533 8.22555 27.1918 8.10632 27.0302C8.07273 26.9843 8.03915 26.9366 8.00556 26.8907C7.89472 26.7377 7.78893 26.5812 7.68481 26.4247C7.64954 26.3703 7.61428 26.3176 7.57901 26.2631C7.47993 26.1084 7.38253 25.9519 7.28849 25.7937C7.25658 25.7393 7.22467 25.6832 7.19277 25.6288C7.09872 25.4655 7.00804 25.3022 6.92239 25.1355C6.89552 25.0862 6.87033 25.0369 6.84514 24.9859C6.75446 24.8107 6.66881 24.6321 6.58653 24.4552C6.56805 24.4161 6.54958 24.3753 6.53111 24.3362C6.44378 24.144 6.35982 23.9501 6.28089 23.7545C6.27081 23.729 6.25906 23.7018 6.24898 23.6763C6.16501 23.4671 6.08609 23.2545 6.01219 23.0419C6.00716 23.0283 6.0038 23.0164 5.99876 23.0028C5.92151 22.7783 5.8493 22.5521 5.78213 22.3242C5.78213 22.3225 5.78213 22.3191 5.78045 22.3174C5.57557 21.615 5.42107 20.9006 5.31863 20.1812C5.31863 20.1812 5.31863 20.1778 5.31863 20.1761C5.28504 19.9397 5.2565 19.7016 5.23466 19.4635C5.23466 19.455 5.23466 19.4465 5.23299 19.438C5.21115 19.205 5.19436 18.972 5.18428 18.739C5.18428 18.7271 5.18428 18.7135 5.18428 18.7016C5.16245 18.2338 5.16245 17.7661 5.18428 17.2984C5.18428 17.2865 5.18428 17.2729 5.18428 17.261C5.19604 17.028 5.21283 16.795 5.23299 16.562C5.23299 16.5535 5.23299 16.545 5.23466 16.5365C5.2565 16.2984 5.28504 16.0603 5.31863 15.8239C5.31863 15.8239 5.31863 15.8222 5.31863 15.8205C5.42107 15.0993 5.57557 14.385 5.78045 13.6826C5.78045 13.6809 5.78045 13.6792 5.78213 13.6775C5.8493 13.4496 5.92151 13.2234 5.99876 12.9989C6.0038 12.987 6.00716 12.9734 6.01219 12.9615C6.08609 12.7489 6.16501 12.5363 6.24898 12.3271C6.25906 12.3016 6.26913 12.2761 6.28089 12.2489C6.35982 12.0533 6.44378 11.8594 6.53111 11.6672C6.54958 11.6281 6.56805 11.589 6.58485 11.5482C6.66713 11.3696 6.75446 11.191 6.84514 11.0158C6.87033 10.9665 6.8972 10.9172 6.92239 10.8679C7.00972 10.7012 7.1004 10.5379 7.19444 10.3746C7.22635 10.3202 7.25826 10.2658 7.29017 10.2114C7.38421 10.0532 7.48161 9.89672 7.58069 9.74025C7.61596 9.68583 7.64954 9.6331 7.68481 9.58038C7.78893 9.42221 7.8964 9.26744 8.00724 9.11267C8.04083 9.06675 8.07441 9.01913 8.108 8.97321C8.22723 8.80993 8.34982 8.65006 8.47745 8.49019C8.50432 8.45618 8.53119 8.42216 8.55806 8.38815C8.69912 8.21467 8.84355 8.04289 8.99301 7.87452C9.00812 7.85751 9.02324 7.8388 9.03835 7.82179C9.2046 7.63471 9.37757 7.45273 9.5539 7.27245C9.73863 7.08536 9.92672 6.90508 10.1182 6.7299C10.135 6.7146 10.1534 6.69929 10.1702 6.68398C10.3465 6.52411 10.5279 6.36934 10.7093 6.21798C10.7328 6.19927 10.7563 6.17886 10.7798 6.16015C10.9629 6.01218 11.1476 5.86762 11.3357 5.72986C11.3541 5.71625 11.3743 5.70094 11.3928 5.68734C11.596 5.53937 11.8009 5.39651 12.0091 5.26045C12.0091 5.26045 12.0108 5.26045 12.0124 5.25875C12.8823 4.68899 13.7993 4.21958 14.7447 3.85052V3.84711C15.9102 3.39131 17.1478 3.07837 18.4342 2.9304C18.4342 2.9304 18.4342 2.93211 18.4359 2.93381C20.3436 2.71271 22.2849 2.86237 24.1456 3.38281C24.1742 3.39131 24.2044 3.39981 24.2329 3.40832C24.3203 3.43383 24.4093 3.45934 24.4966 3.48655C24.5638 3.50696 24.6309 3.52907 24.6964 3.54948C24.7418 3.56479 24.7888 3.5801 24.8341 3.5954C24.9315 3.62772 25.0306 3.66173 25.128 3.69575C25.1364 3.69915 25.1465 3.70255 25.1549 3.70595C25.5109 3.83351 25.8602 3.97637 26.2045 4.12944C26.2045 4.12944 26.2045 4.12944 26.2062 4.12944C27.3498 4.64137 28.443 5.30467 29.4557 6.12103C29.4557 6.12103 29.4557 6.12443 29.4557 6.12613C29.9779 6.54622 30.47 7.00203 30.9318 7.48674C30.9687 7.52586 31.004 7.56328 31.041 7.60239C31.1921 7.76567 31.3399 7.93064 31.4843 8.09902C31.5112 8.13133 31.5397 8.16364 31.5666 8.19596C31.7228 8.38304 31.8756 8.57353 32.0234 8.76742C32.0368 8.78442 32.0486 8.80143 32.062 8.81844C32.4667 9.35588 32.8362 9.92053 33.167 10.509C33.1955 10.56 33.2241 10.6127 33.2526 10.6655C33.3433 10.8321 33.4323 11.0005 33.5163 11.1706C33.5583 11.2556 33.6003 11.339 33.6406 11.424C33.6909 11.5295 33.7413 11.6366 33.7883 11.7437C33.8522 11.8866 33.9143 12.0295 33.9731 12.174C34.0016 12.2438 34.0302 12.3152 34.0587 12.3849C34.1292 12.5652 34.1964 12.7455 34.2602 12.9275C34.2753 12.9734 34.2905 13.0193 34.3073 13.0635C34.4517 13.4921 34.5793 13.9241 34.6851 14.3629C34.6885 14.3765 34.6918 14.3901 34.6952 14.4037C34.7489 14.6282 34.7976 14.8544 34.8413 15.0823C34.8446 15.0976 34.848 15.1147 34.8497 15.13C34.937 15.5875 35.0008 16.0467 35.0462 16.5076C35.0478 16.528 35.0512 16.5484 35.0529 16.5688C35.073 16.7865 35.0881 17.0059 35.0999 17.2253C35.1016 17.2644 35.1033 17.3018 35.1049 17.3409C35.1251 17.7951 35.1251 18.2492 35.1049 18.7033L35.1033 18.7016Z" fill="#0EB6BF"/>
<path d="M28.3567 23.8271L14.3221 9.61339C13.6243 8.90669 12.4929 8.90669 11.7951 9.61339C11.0973 10.3201 11.0973 11.4659 11.7951 12.1726L25.8298 26.3863C26.5276 27.093 27.6589 27.093 28.3567 26.3863C29.0545 25.6796 29.0545 24.5338 28.3567 23.8271Z" fill="url(#paint0_radial_19_301)"/>
<path d="M14.3234 26.387L28.3581 12.1732C29.0559 11.4665 29.0559 10.3207 28.3581 9.61403C27.6603 8.90733 26.529 8.90733 25.8312 9.61403L11.7965 23.8278C11.0987 24.5345 11.0987 25.6803 11.7965 26.387C12.4943 27.0937 13.6257 27.0937 14.3234 26.387Z" fill="url(#paint1_radial_19_301)"/>
<path d="M5.38583 29.1629C5.38583 29.1629 5.38247 29.1578 5.38079 29.1561C4.84509 28.4316 4.36816 27.6748 3.95 26.8958C3.94664 26.8907 3.94496 26.8856 3.94161 26.8822C3.87611 26.7598 3.81062 26.6356 3.74848 26.5115C3.74009 26.4962 3.73337 26.4791 3.72497 26.4638C3.66787 26.3499 3.61246 26.2376 3.55704 26.1237C3.54193 26.0931 3.52849 26.0625 3.51338 26.0318C3.46636 25.9315 3.42101 25.8329 3.37567 25.7325C3.35384 25.6849 3.33369 25.6373 3.31186 25.5913C3.27491 25.508 3.23797 25.423 3.2027 25.3379C3.17415 25.2716 3.14728 25.207 3.12041 25.1406C3.09354 25.0743 3.06667 25.008 3.0398 24.94C3.00622 24.8549 2.97431 24.7699 2.94072 24.6848C2.92225 24.6355 2.90378 24.5862 2.88531 24.5386C2.84668 24.4348 2.80974 24.3328 2.77447 24.229C2.76943 24.2171 2.76607 24.2035 2.76104 24.1916H1.55696C0.695458 24.1916 -0.00146484 24.8991 -0.00146484 25.7699V27.6408C-0.00146484 28.5133 0.697137 29.2191 1.55696 29.2191H5.42446C5.41102 29.2021 5.39759 29.1834 5.38415 29.1663L5.38583 29.1629Z" fill="#0EB6BF"/>
<path d="M1.55842 20.5146H1.89093C1.87917 20.4244 1.86574 20.336 1.85566 20.2458C1.85398 20.2305 1.8523 20.2169 1.85062 20.2016C1.83551 20.0707 1.8204 19.9397 1.80864 19.807C1.80528 19.7781 1.8036 19.7492 1.80024 19.7186C1.79017 19.6013 1.78009 19.4822 1.77169 19.3648C1.76834 19.3155 1.76498 19.2679 1.7633 19.2186C1.75658 19.1182 1.74986 19.0179 1.74483 18.9175C1.74147 18.841 1.73811 18.7628 1.73643 18.6862C1.73307 18.6114 1.72971 18.5383 1.72803 18.4634C1.72131 18.1556 1.72131 17.8478 1.72803 17.5399C1.72971 17.4651 1.73307 17.3903 1.73643 17.3171C1.73979 17.2406 1.74147 17.1624 1.74483 17.0858C1.74986 16.9855 1.75658 16.8851 1.7633 16.7831C1.76666 16.7338 1.76834 16.6861 1.77169 16.6368C1.78009 16.5178 1.79017 16.4004 1.80024 16.2814C1.8036 16.2525 1.80528 16.2235 1.80864 16.1929C1.8204 16.0603 1.83551 15.9293 1.85062 15.7984C1.8523 15.783 1.85398 15.7694 1.85566 15.7541C1.86574 15.664 1.87917 15.5739 1.89093 15.4854H1.55842C0.696923 15.4854 0 16.1929 0 17.0637V18.9346C0 19.807 0.698602 20.5129 1.55842 20.5129V20.5146Z" fill="#0EB6BF"/>
<path d="M1.55891 11.812H2.76299C2.76803 11.8001 2.77139 11.7865 2.77642 11.7746C2.81337 11.6708 2.85031 11.5671 2.88726 11.465C2.90573 11.4157 2.9242 11.3681 2.94268 11.3188C2.97458 11.2337 3.00817 11.1487 3.04176 11.0636C3.06863 10.9973 3.0955 10.931 3.12237 10.8629C3.14924 10.7966 3.1761 10.7303 3.20465 10.6657C3.23992 10.5806 3.27686 10.4973 3.31381 10.4139C3.33396 10.3663 3.35579 10.3187 3.37762 10.2711C3.42297 10.1707 3.46831 10.0704 3.51533 9.97175C3.53044 9.94114 3.54388 9.91052 3.55899 9.87991C3.61273 9.76596 3.66983 9.65201 3.72693 9.53976C3.73532 9.52445 3.74204 9.50914 3.75044 9.49213C3.81425 9.36798 3.87807 9.24382 3.94356 9.11967C3.94524 9.11457 3.9486 9.11116 3.95028 9.10606C4.36843 8.32711 4.84536 7.57198 5.38107 6.84575C5.38275 6.84235 5.38611 6.83895 5.38778 6.83725C5.40122 6.82024 5.41465 6.80323 5.42641 6.78622H1.55891C0.697411 6.78622 0.000488281 7.49374 0.000488281 8.36453V10.2354C0.000488281 11.1079 0.69909 11.8137 1.55891 11.8137V11.812Z" fill="#0EB6BF"/>
<path d="M38.4419 15.4854H38.3882C38.3999 15.5687 38.4117 15.6538 38.4218 15.7371C38.4318 15.8171 38.4402 15.897 38.4486 15.9769C38.4638 16.1147 38.4772 16.2524 38.4889 16.3919C38.499 16.5025 38.5074 16.613 38.5141 16.7236C38.5192 16.795 38.5225 16.8647 38.5259 16.9362C38.5326 17.0535 38.5376 17.1692 38.5427 17.2865C38.5444 17.346 38.5477 17.4073 38.5494 17.4668C38.5544 17.6437 38.5578 17.8222 38.5578 17.9991C38.5578 18.1522 38.5561 18.307 38.5528 18.46C38.5511 18.5366 38.5477 18.6131 38.5444 18.6879C38.541 18.7628 38.5393 18.8393 38.536 18.9141C38.5309 19.0162 38.5242 19.1182 38.5175 19.2186C38.5141 19.2662 38.5125 19.3138 38.5091 19.3614C38.5007 19.4805 38.4906 19.5995 38.4789 19.7186C38.4755 19.7475 38.4738 19.7747 38.4722 19.8036C38.4604 19.9363 38.4453 20.0673 38.4302 20.1982C38.4285 20.2135 38.4268 20.2271 38.4251 20.2424C38.4151 20.3326 38.4016 20.421 38.3899 20.5112H38.4436C39.3051 20.5112 40.002 19.8036 40.002 18.9328V17.062C40.002 16.1895 39.3034 15.4837 38.4436 15.4837L38.4419 15.4854Z" fill="#0EB6BF"/>
<path d="M38.442 24.1882H37.5167C37.5117 24.2018 37.5083 24.2137 37.5033 24.2273C37.4663 24.3311 37.4311 24.4331 37.3925 24.5369C37.374 24.5862 37.3555 24.6355 37.337 24.6848C37.3051 24.7699 37.2715 24.8549 37.2396 24.9382C37.2128 25.0063 37.1859 25.0726 37.159 25.1389C37.1322 25.2053 37.1053 25.2699 37.0767 25.3362C37.0415 25.4213 37.0045 25.5063 36.9676 25.5896C36.9474 25.6373 36.9256 25.6832 36.9054 25.7308C36.8601 25.8311 36.8131 25.9315 36.7661 26.0318C36.7526 26.0624 36.7375 26.0914 36.7241 26.122C36.6687 26.2359 36.6132 26.3499 36.5561 26.4638C36.5477 26.4791 36.541 26.4944 36.5326 26.5097C36.4688 26.6339 36.405 26.7598 36.3378 26.8822C36.3362 26.8856 36.3328 26.8907 36.3311 26.8941C35.913 27.6748 35.436 28.4299 34.9003 29.1561C34.8986 29.1578 34.897 29.1612 34.8953 29.1629C34.8818 29.1799 34.8684 29.1986 34.855 29.2156H38.4437C39.3052 29.2156 40.0021 28.5081 40.0021 27.6373V25.7665C40.0021 24.894 39.3035 24.1882 38.4437 24.1882H38.442Z" fill="#0EB6BF"/>
<path d="M38.442 6.78262H34.855C35.7585 7.99527 36.4974 9.29465 37.07 10.6485C37.0784 10.6672 37.0851 10.6859 37.0935 10.7046C37.1506 10.8423 37.206 10.9784 37.2615 11.1179C37.2816 11.1689 37.3001 11.2199 37.3202 11.2709C37.3605 11.3781 37.4008 11.4852 37.4395 11.5924C37.463 11.657 37.4865 11.7216 37.5083 11.7863C37.5117 11.7948 37.515 11.805 37.5167 11.8135H38.442C39.3035 11.8135 40.0005 11.106 40.0005 10.2352V8.36433C40.0005 7.49184 39.3019 6.78602 38.442 6.78602V6.78262Z" fill="#0EB6BF"/>
</g>
<defs>
<radialGradient id="paint0_radial_19_301" cx="0" cy="0" r="1" gradientUnits="userSpaceOnUse" gradientTransform="translate(20.0764 18) scale(8.80473 8.91709)">
<stop stop-color="white"/>
<stop offset="1" stop-color="#D9D9D9"/>
</radialGradient>
<radialGradient id="paint1_radial_19_301" cx="0" cy="0" r="1" gradientUnits="userSpaceOnUse" gradientTransform="translate(20.0778 17.9994) scale(8.80473 8.91709)">
<stop stop-color="white"/>
<stop offset="1" stop-color="#D9D9D9"/>
</radialGradient>
<clipPath id="clip0_19_301">
<rect width="40" height="36" fill="white"/>
</clipPath>
</defs>
</svg>
