<svg width="32" height="33" viewBox="0 0 32 33" fill="none" xmlns="http://www.w3.org/2000/svg">
<path d="M30.8857 18.1571C30.8857 18.1696 30.8857 18.1821 30.8844 18.1946C30.8736 18.4302 30.8575 18.6659 30.8346 18.9001C30.8346 18.9084 30.8333 18.9181 30.8319 18.9278C30.8091 19.169 30.7822 19.4088 30.7486 19.6472C30.7486 19.6486 30.7486 19.65 30.7486 19.6514C30.6464 20.3805 30.4932 21.1027 30.2902 21.8138C30.2902 21.8152 30.2902 21.818 30.2889 21.8193C30.223 22.0494 30.1505 22.2782 30.0738 22.5055C30.0698 22.518 30.0644 22.5318 30.0604 22.5443C29.9865 22.7591 29.9085 22.9726 29.8265 23.1847C29.8158 23.211 29.805 23.2374 29.7943 23.2637C29.7163 23.4619 29.633 23.6574 29.5456 23.8528C29.5281 23.893 29.5093 23.9332 29.4918 23.972C29.4098 24.1522 29.3238 24.3324 29.2338 24.5099C29.2082 24.5611 29.1827 24.611 29.1558 24.6609C29.0698 24.8287 28.9797 24.995 28.887 25.1586C28.856 25.214 28.8238 25.2695 28.7915 25.3249C28.6988 25.4843 28.602 25.6437 28.5039 25.8004C28.4689 25.8558 28.434 25.9099 28.399 25.9639C28.2955 26.1233 28.1894 26.28 28.0805 26.4352C28.0469 26.4823 28.0146 26.5295 27.981 26.5766C27.8627 26.7415 27.7404 26.9037 27.6141 27.0645C27.5872 27.0992 27.5603 27.1338 27.5334 27.1671C27.3936 27.3431 27.2498 27.515 27.1019 27.6855C27.0872 27.7035 27.0724 27.7216 27.0562 27.7382C26.8909 27.9267 26.7202 28.1124 26.5441 28.294C26.368 28.4756 26.1879 28.6517 26.0051 28.8222C25.9876 28.8374 25.9702 28.854 25.954 28.8693C25.7887 29.0218 25.6207 29.1715 25.4513 29.3156C25.4191 29.3433 25.3855 29.3711 25.3519 29.3988C25.1959 29.5291 25.0373 29.6552 24.8787 29.7772C24.833 29.8119 24.7873 29.8451 24.7416 29.8798C24.5897 29.9934 24.4378 30.103 24.2833 30.2097C24.2309 30.2457 24.1784 30.2818 24.126 30.3164C23.9741 30.419 23.8195 30.5174 23.665 30.6144C23.6112 30.6477 23.5574 30.6796 23.5037 30.7129C23.3437 30.8085 23.1824 30.9014 23.0198 30.9915C22.9714 31.0178 22.923 31.0441 22.8733 31.0705C22.6999 31.1634 22.5265 31.2521 22.3504 31.3366C22.3114 31.356 22.2738 31.3741 22.2348 31.3921C22.0453 31.4822 21.8558 31.5667 21.6635 31.6485C21.638 31.6596 21.6125 31.6707 21.5869 31.6804C21.3813 31.7663 21.1729 31.8467 20.9646 31.923C20.9525 31.9271 20.9404 31.9313 20.9283 31.9368C20.7079 32.0158 20.4861 32.0907 20.2616 32.1586C20.2603 32.1586 20.2576 32.1586 20.2562 32.16C19.5667 32.3707 18.8664 32.5273 18.1594 32.6327C18.1594 32.6327 18.1567 32.6327 18.1553 32.6327C17.9228 32.6673 17.6903 32.6964 17.4564 32.7186C17.4483 32.7186 17.4389 32.72 17.4308 32.7214C17.2023 32.7436 16.9752 32.7602 16.7467 32.7727C16.7346 32.7727 16.7211 32.7727 16.709 32.7741C16.4805 32.7851 16.252 32.7907 16.0222 32.7907C15.7937 32.7907 15.5652 32.7851 15.3353 32.7741C15.3232 32.7741 15.3098 32.7741 15.2977 32.7727C15.0692 32.7616 14.8407 32.7449 14.6135 32.7214C14.6041 32.7214 14.596 32.72 14.5866 32.7186C14.3541 32.695 14.1216 32.6673 13.889 32.6327C13.8877 32.6327 13.885 32.6327 13.8836 32.6327C13.178 32.5273 12.4763 32.3693 11.7881 32.16C11.7854 32.16 11.7827 32.1586 11.7801 32.1572C11.5569 32.0893 11.3351 32.0158 11.1147 31.9354C11.1013 31.9313 11.0892 31.9257 11.0771 31.9216C10.8687 31.8467 10.6617 31.7649 10.4561 31.6804C10.4305 31.6693 10.4037 31.6582 10.3781 31.6471C10.1873 31.5667 9.99638 31.4808 9.8082 31.3921C9.76922 31.3741 9.73024 31.3546 9.69126 31.3352C9.51652 31.2507 9.34313 31.162 9.17108 31.0691C9.12135 31.0428 9.07296 31.0164 9.02322 30.9887C8.86058 30.9 8.70063 30.8071 8.54068 30.7115C8.48557 30.6782 8.4318 30.6463 8.37804 30.6117C8.22346 30.516 8.07023 30.4176 7.91834 30.315C7.86457 30.279 7.81215 30.243 7.75973 30.2069C7.6065 30.1002 7.45327 29.9907 7.30272 29.8784C7.25702 29.8437 7.20998 29.8091 7.16428 29.7744C7.00432 29.6525 6.84706 29.5263 6.69248 29.3974C6.65888 29.3697 6.62527 29.342 6.59167 29.3142C6.42231 29.1701 6.25429 29.0218 6.08896 28.8693C6.07149 28.854 6.05401 28.8374 6.03654 28.8222C5.85374 28.6517 5.67497 28.4756 5.49754 28.294C5.49754 28.294 5.49754 28.294 5.49619 28.2926C5.32011 28.1111 5.14941 27.9253 4.98408 27.7382C4.96795 27.7202 4.95316 27.7021 4.93838 27.6841C4.79052 27.5136 4.6467 27.3417 4.50691 27.1657C4.48002 27.1311 4.45314 27.0964 4.42626 27.0617C4.30125 26.901 4.17894 26.7388 4.06065 26.5752C4.02705 26.5281 3.99344 26.481 3.95984 26.4338C3.85096 26.2786 3.74343 26.1206 3.64128 25.9625C3.60633 25.9085 3.57138 25.853 3.53643 25.799C3.43697 25.6423 3.34153 25.4843 3.24879 25.3235C3.21653 25.2681 3.18427 25.2126 3.15335 25.1572C3.06061 24.9922 2.97055 24.8259 2.88453 24.6596C2.85899 24.6097 2.8321 24.5584 2.80657 24.5085C2.71651 24.331 2.63048 24.1508 2.54849 23.9706C2.52967 23.9304 2.5122 23.8902 2.49338 23.85C2.40735 23.656 2.32402 23.4592 2.24606 23.2623C2.2353 23.236 2.22455 23.2096 2.2138 23.1833C2.13046 22.9712 2.0525 22.7578 1.97992 22.5429C1.97589 22.5304 1.97051 22.5166 1.96648 22.5041C1.88986 22.2768 1.81728 22.0481 1.75141 21.818C1.75141 21.8152 1.75141 21.8138 1.75007 21.811C1.54576 21.1013 1.39387 20.3777 1.29172 19.65C1.29172 19.6486 1.29172 19.6472 1.29172 19.6459C1.25811 19.4061 1.22989 19.1663 1.20838 18.9251C1.20838 18.9167 1.20704 18.907 1.20569 18.8987C1.18419 18.6631 1.16806 18.4274 1.15596 18.1918C1.15596 18.1793 1.15596 18.1668 1.15461 18.1544C1.13311 17.6817 1.13311 17.2076 1.15461 16.735C1.15461 16.7225 1.15461 16.71 1.15596 16.6975C1.16671 16.4619 1.18419 16.2262 1.20569 15.9906C1.20569 15.9823 1.20704 15.9726 1.20838 15.9643C1.23123 15.7231 1.25811 15.4833 1.29172 15.2435V15.2407C1.39387 14.5116 1.5471 13.7894 1.75007 13.0783C1.75007 13.0769 1.75007 13.0741 1.75141 13.0728C1.81728 12.8427 1.88986 12.6126 1.96648 12.3852C1.97051 12.3727 1.97454 12.3603 1.97992 12.3478C2.05385 12.1329 2.13181 11.9181 2.21514 11.706C2.2259 11.6797 2.2353 11.6533 2.24606 11.627C2.32402 11.4288 2.40736 11.2333 2.49472 11.0379C2.5122 10.9977 2.53102 10.9575 2.54849 10.9187C2.63048 10.7371 2.71651 10.5583 2.80657 10.3795C2.8321 10.3296 2.85764 10.2797 2.88318 10.2298C2.97055 10.062 3.06061 9.8957 3.15335 9.73075C3.18427 9.67531 3.21653 9.61986 3.24879 9.56441C3.34153 9.40362 3.43831 9.2456 3.53778 9.08758C3.57138 9.03352 3.60633 8.97946 3.64128 8.9254C3.74478 8.76599 3.85096 8.60797 3.96118 8.45272C3.99479 8.40559 4.02705 8.35847 4.06065 8.31272C4.17894 8.14777 4.30125 7.98559 4.4276 7.8248C4.45448 7.79015 4.48137 7.75549 4.50825 7.72222C4.64804 7.54618 4.79186 7.3743 4.93972 7.20381C4.9545 7.18579 4.96929 7.16777 4.98542 7.15113C5.15075 6.96262 5.32146 6.77687 5.49754 6.59529C5.68034 6.40677 5.86852 6.2238 6.05805 6.04637C6.07552 6.03113 6.09299 6.01449 6.10912 5.99924C6.28521 5.83706 6.46398 5.68043 6.64544 5.52795C6.66829 5.50855 6.69248 5.48914 6.71533 5.46974C6.89679 5.32003 7.08094 5.17449 7.26777 5.03449C7.28659 5.02062 7.30541 5.00538 7.32557 4.99151C7.52719 4.84181 7.7315 4.69765 7.9385 4.55904C7.9385 4.55904 7.94119 4.55765 7.94119 4.55626C8.80682 3.97963 9.7168 3.50557 10.6564 3.13131C10.6564 3.13131 10.6564 3.12853 10.6564 3.12715C11.815 2.66556 13.0436 2.34952 14.3218 2.19982C14.3218 2.19982 14.3232 2.20259 14.3245 2.20397C16.2198 1.9808 18.1486 2.13189 19.9981 2.65863C20.0277 2.66695 20.0559 2.67526 20.0855 2.68358C20.1729 2.70853 20.2603 2.73487 20.3463 2.76259C20.4121 2.78338 20.4794 2.80417 20.5452 2.82635C20.5909 2.8416 20.6366 2.85685 20.6823 2.8721C20.7804 2.90536 20.8772 2.93863 20.974 2.97467C20.9834 2.97744 20.9928 2.9816 21.0009 2.98437C21.3544 3.11467 21.7025 3.25745 22.0439 3.41269C22.0439 3.41269 22.0439 3.41269 22.0453 3.41131C23.1811 3.92973 24.2685 4.60062 25.2752 5.42677C25.2752 5.42815 25.2752 5.42954 25.2752 5.43092C25.7941 5.85647 26.2834 6.31667 26.7417 6.80737C26.778 6.84618 26.8143 6.88499 26.8506 6.92519C27.0011 7.09014 27.1476 7.25786 27.2915 7.42836C27.3183 7.46163 27.3466 7.49351 27.3735 7.52678C27.5294 7.71529 27.6799 7.90935 27.8278 8.10619C27.8399 8.12282 27.8533 8.13945 27.8654 8.15747C28.2673 8.70084 28.6343 9.27194 28.9636 9.86798C28.9918 9.92065 29.02 9.97333 29.0483 10.026C29.1383 10.1937 29.2257 10.3642 29.3104 10.5361C29.352 10.622 29.3937 10.7066 29.434 10.7939C29.4838 10.9007 29.5335 11.0088 29.5819 11.1169C29.6451 11.2611 29.7069 11.4066 29.766 11.5521C29.7943 11.6228 29.8238 11.6949 29.8507 11.7656C29.9206 11.9472 29.9878 12.1302 30.051 12.3145C30.0671 12.3603 30.0819 12.4074 30.0967 12.4531C30.2405 12.887 30.3669 13.325 30.473 13.7672C30.4771 13.7811 30.4798 13.7949 30.4838 13.8088C30.5376 14.0361 30.586 14.2648 30.629 14.4949C30.6317 14.5116 30.6343 14.5268 30.6384 14.5435C30.7244 15.005 30.7889 15.4708 30.8333 15.9379C30.8346 15.9587 30.8373 15.9795 30.84 16.0003C30.8602 16.2207 30.8749 16.4425 30.8857 16.6643C30.887 16.7031 30.8884 16.7419 30.8911 16.7807C30.9099 17.2395 30.9112 17.6997 30.8911 18.1585L30.8857 18.1571Z" fill="#2D2E2D"/>
<path d="M26.4433 27.4263C26.4809 27.3833 26.5199 27.3417 26.5576 27.2988C26.61 27.2392 26.6624 27.1782 26.7148 27.1172C26.7377 27.0895 26.7619 27.0631 26.7847 27.0354C26.8452 26.9633 26.9044 26.8913 26.9622 26.8192C26.9756 26.8025 26.989 26.7859 27.0025 26.7693C27.067 26.6875 27.1315 26.6071 27.1933 26.5239C27.2001 26.5156 27.2068 26.5073 27.2135 26.499C27.2821 26.4103 27.3479 26.3202 27.4138 26.2301C27.4138 26.2287 27.4165 26.2259 27.4178 26.2245C27.8318 25.6534 28.2001 25.0588 28.524 24.4461C28.5254 24.4433 28.5267 24.4392 28.5294 24.4364C28.5805 24.3394 28.6302 24.2409 28.68 24.1425C28.6867 24.13 28.6921 24.1176 28.6974 24.1065C28.7418 24.0178 28.7848 23.9277 28.8265 23.8376C28.8372 23.814 28.848 23.7904 28.8587 23.7669C28.895 23.6879 28.9313 23.6089 28.9663 23.5298C28.9824 23.4938 28.9985 23.4564 29.0147 23.419C29.0429 23.3524 29.0711 23.2859 29.0993 23.2193C29.1208 23.1681 29.141 23.1168 29.1625 23.0641C29.184 23.0114 29.2042 22.9588 29.2257 22.9061C29.2512 22.8395 29.2768 22.773 29.301 22.7065C29.3157 22.6677 29.3292 22.6288 29.344 22.59C29.3735 22.5096 29.4018 22.4279 29.43 22.3475C29.4394 22.3225 29.4475 22.2962 29.4569 22.2712C29.4878 22.1783 29.5187 22.0841 29.5483 21.9898C29.5523 21.976 29.5577 21.9621 29.5617 21.9482C29.594 21.8443 29.6262 21.7389 29.6558 21.6336C29.6558 21.6294 29.6585 21.6253 29.6598 21.6211C29.8521 20.9516 29.9986 20.2641 30.098 19.5585C30.098 19.5558 30.098 19.553 30.098 19.5488C30.1128 19.4379 30.1276 19.327 30.1411 19.2148C30.1424 19.2037 30.1437 19.1912 30.1451 19.1801C30.1572 19.0762 30.1679 18.9736 30.1773 18.8696C30.18 18.8474 30.1814 18.8253 30.1827 18.8031C30.1908 18.7102 30.1988 18.616 30.2056 18.5217C30.2083 18.4843 30.2096 18.4468 30.2123 18.4094C30.2177 18.329 30.223 18.25 30.2257 18.1696C30.2284 18.11 30.2298 18.0518 30.2324 17.9922C30.2351 17.9326 30.2378 17.873 30.2392 17.812C30.2419 17.6914 30.2432 17.5694 30.2432 17.4488C30.2432 17.3088 30.2405 17.1688 30.2365 17.0302C30.2365 16.9831 30.2338 16.9359 30.2311 16.8888C30.2271 16.7973 30.223 16.7045 30.219 16.613C30.2163 16.5575 30.2136 16.5021 30.2096 16.4452C30.2042 16.3579 30.1975 16.272 30.1894 16.1847C30.18 16.0751 30.1706 15.967 30.1585 15.8589C30.1518 15.7965 30.1451 15.7328 30.1384 15.6704C30.129 15.5872 30.1182 15.5054 30.1061 15.4223C30.0994 15.3765 30.094 15.3294 30.0873 15.2837C30.0752 15.1949 30.0617 15.1062 30.047 15.0189C30.0416 14.9884 30.0362 14.9579 30.0322 14.9288C29.9811 14.6211 29.9193 14.3175 29.8494 14.0181C29.8426 13.9876 29.8359 13.9585 29.8279 13.928C29.8064 13.8379 29.7835 13.7492 29.7607 13.6591C29.7512 13.6203 29.7405 13.5815 29.7297 13.5427C29.7069 13.4567 29.684 13.3708 29.6598 13.2862C29.6477 13.2446 29.6357 13.203 29.6222 13.1615C29.5846 13.0339 29.5456 12.9078 29.5039 12.783C29.4797 12.7096 29.4555 12.6347 29.43 12.5613C29.4125 12.51 29.3937 12.4601 29.3762 12.4088C29.3467 12.3242 29.3157 12.2411 29.2848 12.1565C29.27 12.1163 29.2553 12.0761 29.2391 12.0373C29.1975 11.9292 29.1544 11.8211 29.1101 11.7129C29.1047 11.6977 29.098 11.6838 29.0926 11.6686C28.4004 10.001 27.3936 8.43886 26.0737 7.07767C26.0481 7.05133 26.0213 7.02499 25.9944 6.99866C25.9796 6.98479 25.9661 6.96955 25.9514 6.95569C24.6529 5.64716 23.1717 4.64636 21.5923 3.95329C21.5762 3.94636 21.5587 3.93943 21.5426 3.9325C21.4337 3.88537 21.3248 3.83824 21.2146 3.79388C21.1743 3.77725 21.1326 3.762 21.0923 3.74537C21.0063 3.71072 20.9189 3.67745 20.8329 3.64557C20.767 3.62062 20.7011 3.59844 20.6353 3.57487C20.5721 3.55269 20.5089 3.53052 20.4457 3.50834C20.357 3.47784 20.2683 3.45012 20.1783 3.42101C20.1366 3.40854 20.0949 3.39467 20.0533 3.3822C19.9457 3.34893 19.8382 3.31844 19.7293 3.28794C19.7051 3.28101 19.6796 3.27408 19.6554 3.26715C19.5344 3.23388 19.4121 3.20339 19.2898 3.17289C19.2763 3.17012 19.2642 3.16596 19.2508 3.16319C19.1218 3.13269 18.9914 3.1022 18.8597 3.07586C18.8529 3.07447 18.8462 3.07309 18.8395 3.0717C18.7064 3.04398 18.572 3.01764 18.4376 2.99408C18.4322 2.99408 18.4268 2.99269 18.4215 2.9913C18.2884 2.96774 18.154 2.94695 18.0196 2.92616C18.0115 2.92616 18.0048 2.92338 17.9967 2.92338C17.8663 2.90398 17.7346 2.88734 17.6029 2.8721C17.5908 2.87071 17.5773 2.86932 17.5653 2.86794C17.4389 2.85408 17.3126 2.8416 17.1862 2.83051C17.1674 2.82913 17.1486 2.82774 17.1298 2.82635C17.0088 2.81665 16.8878 2.80833 16.7655 2.8014C16.7413 2.8014 16.7158 2.79863 16.6916 2.79724C16.5746 2.7917 16.4563 2.78754 16.3381 2.78477C16.3112 2.78477 16.2856 2.78477 16.2587 2.78477C16.1768 2.78338 16.0948 2.78061 16.0128 2.78061C13.9777 2.78061 12.0435 3.22141 10.2934 4.01567C10.2934 4.01567 10.2921 4.01567 10.2908 4.01567C10.1617 4.07389 10.0327 4.13488 9.90498 4.19725C9.9023 4.19725 9.89961 4.20003 9.89826 4.20141C9.77057 4.26379 9.64288 4.32894 9.51787 4.39547C9.50712 4.40102 9.49771 4.40656 9.4883 4.41211C9.3848 4.46755 9.28265 4.523 9.18049 4.58121C9.13345 4.60755 9.0864 4.63528 9.03936 4.663C8.97484 4.70042 8.91166 4.73785 8.84849 4.77666C8.79203 4.80993 8.73692 4.84458 8.68181 4.87924C8.62939 4.9125 8.57697 4.94577 8.52455 4.97904C8.30277 5.12043 8.08367 5.26874 7.86861 5.42538C7.8256 5.45587 7.78258 5.48637 7.74091 5.51825C7.67908 5.56399 7.6186 5.60974 7.55811 5.65548C7.51241 5.69013 7.46537 5.72617 7.41966 5.76221C7.36321 5.80657 7.30541 5.85093 7.24896 5.89667C7.1831 5.94934 7.11858 6.0034 7.05406 6.05746C6.98954 6.11152 6.92636 6.16558 6.86319 6.22103C6.79464 6.28063 6.72743 6.33885 6.66022 6.39984C6.62124 6.43588 6.58226 6.47192 6.54328 6.50657C6.47608 6.56895 6.40887 6.63133 6.34301 6.6937C6.3094 6.72558 6.27714 6.75608 6.24354 6.78796C6.05939 6.96677 5.88062 7.14975 5.70723 7.33826C5.6669 7.38262 5.62792 7.42698 5.5876 7.46995C5.54862 7.51292 5.50964 7.55589 5.47066 7.60024C5.41824 7.65985 5.36716 7.72084 5.31474 7.78044C5.29054 7.80817 5.26635 7.83589 5.2435 7.86361C5.18436 7.9343 5.12521 8.00638 5.06742 8.07846C5.05263 8.09648 5.03919 8.11312 5.0244 8.13114C4.95988 8.21153 4.89671 8.29193 4.83488 8.37371C4.82816 8.38342 4.82009 8.39173 4.81337 8.40144C4.74617 8.49015 4.6803 8.57886 4.61444 8.66896C4.6131 8.67173 4.61041 8.67312 4.60906 8.67589C4.19507 9.2456 3.82677 9.84026 3.50418 10.4529C3.50283 10.4571 3.50015 10.4599 3.4988 10.464C3.44772 10.5611 3.39799 10.6581 3.3496 10.7565C3.34288 10.769 3.3375 10.7815 3.33078 10.7939C3.28643 10.8826 3.24341 10.9727 3.20175 11.0615C3.19099 11.085 3.1789 11.11 3.16814 11.1335C3.13185 11.2125 3.09556 11.2902 3.06195 11.3692C3.04583 11.4066 3.0297 11.444 3.01357 11.4815C2.98534 11.548 2.95711 11.6131 2.92889 11.6797C2.90738 11.731 2.88587 11.7836 2.86571 11.8349C2.8442 11.8876 2.82404 11.9403 2.80388 11.9916C2.77834 12.0581 2.7528 12.126 2.72726 12.1925C2.71248 12.2314 2.69904 12.2688 2.68425 12.3076C2.65468 12.388 2.62645 12.4698 2.59823 12.5516C2.59016 12.5765 2.58075 12.6015 2.57269 12.6278C2.54043 12.7221 2.51086 12.8163 2.47994 12.9106C2.47591 12.9244 2.47188 12.9369 2.46784 12.9508C2.43558 13.0547 2.40333 13.1601 2.37375 13.2654C2.37375 13.2696 2.37107 13.2737 2.36972 13.2779C2.17751 13.946 2.031 14.6349 1.93288 15.3405C1.93288 15.3433 1.93288 15.3474 1.93288 15.3502C1.91809 15.4611 1.9033 15.572 1.88986 15.6843C1.88852 15.6953 1.88717 15.7078 1.88583 15.7189C1.87373 15.8215 1.86298 15.9254 1.85357 16.0294C1.85088 16.053 1.84954 16.0751 1.84819 16.0987C1.84013 16.1916 1.83206 16.2845 1.82534 16.3773C1.82266 16.4161 1.82131 16.4536 1.81862 16.4924C1.81325 16.5714 1.80921 16.6504 1.80518 16.7294C1.80249 16.7904 1.80115 16.85 1.79846 16.911C1.79577 16.9692 1.79308 17.0274 1.79174 17.087C1.78636 17.3296 1.78636 17.5722 1.79174 17.8134C1.79308 17.8716 1.79577 17.9298 1.79846 17.9894C1.80115 18.0504 1.80249 18.11 1.80518 18.171C1.80921 18.25 1.81459 18.329 1.81862 18.408C1.82131 18.4468 1.82266 18.4843 1.82534 18.5231C1.83206 18.616 1.84013 18.7088 1.84819 18.8017C1.85088 18.8253 1.85223 18.8474 1.85357 18.871C1.86298 18.975 1.87373 19.0789 1.88583 19.1815C1.88583 19.1926 1.88852 19.2051 1.88986 19.2162C1.9033 19.3284 1.91675 19.4393 1.93288 19.5502C1.93288 19.553 1.93288 19.5571 1.93288 19.5599C2.031 20.2641 2.17885 20.953 2.36972 21.6225L2.37375 21.635C2.40467 21.7403 2.43558 21.8457 2.46784 21.9496C2.47188 21.9635 2.47725 21.9774 2.48129 21.9912C2.51086 22.0855 2.54177 22.1797 2.57269 22.274C2.58075 22.2989 2.59016 22.3239 2.59823 22.3502C2.62645 22.432 2.65468 22.5138 2.68425 22.5942C2.69769 22.633 2.71248 22.6718 2.72726 22.7092C2.7528 22.7758 2.777 22.8437 2.80388 22.9102C2.82404 22.9629 2.84555 23.0156 2.86571 23.0683C2.88722 23.1195 2.90738 23.1722 2.92889 23.2235C2.95577 23.29 2.98399 23.3566 3.01357 23.4217C3.0297 23.4592 3.04583 23.4966 3.06195 23.534C3.0969 23.613 3.13319 23.692 3.16814 23.7696C3.1789 23.7932 3.18965 23.8182 3.20175 23.8417C3.24341 23.9318 3.28643 24.0205 3.33078 24.1093C3.3375 24.1217 3.34288 24.1342 3.3496 24.1467C3.39799 24.2451 3.44772 24.3421 3.4988 24.4392C3.50015 24.4433 3.50283 24.4461 3.50418 24.4502C3.82677 25.0629 4.19507 25.6576 4.60906 26.2287C4.61041 26.2301 4.61175 26.2328 4.6131 26.2342C4.67896 26.3243 4.74482 26.4144 4.81337 26.5031C4.82009 26.5128 4.82681 26.5211 4.83488 26.5309C4.89671 26.6126 4.96123 26.693 5.0244 26.7748C5.03784 26.7914 5.05263 26.8095 5.06607 26.8261C5.12387 26.8982 5.18301 26.9703 5.2435 27.0423C5.26635 27.0701 5.29054 27.0978 5.31474 27.1255C5.36582 27.1865 5.41824 27.2461 5.47066 27.3057C5.50964 27.3501 5.54862 27.393 5.5876 27.436C5.62658 27.4804 5.66556 27.5233 5.70588 27.5677C5.78519 27.6536 5.86449 27.7382 5.94649 27.8214C5.94783 27.8227 5.95052 27.8255 5.95186 27.8269C5.95321 27.8283 5.95589 27.8311 5.95724 27.8324C6.03789 27.9156 6.12122 27.9988 6.20322 28.0806C6.24488 28.1222 6.2879 28.1623 6.33091 28.2025C6.37258 28.2427 6.41559 28.2843 6.45726 28.3231C6.51506 28.3772 6.57286 28.4299 6.632 28.4825C6.65888 28.5075 6.68576 28.5324 6.71399 28.5574C6.78254 28.6184 6.85244 28.678 6.92099 28.7376C6.93846 28.7528 6.95594 28.7681 6.97341 28.782C7.05137 28.8485 7.12933 28.9136 7.20863 28.9774C7.21804 28.9843 7.22611 28.9926 7.23552 28.9996C7.32154 29.0689 7.40757 29.1368 7.49494 29.2047C7.49762 29.2061 7.49897 29.2089 7.50166 29.2103C8.0541 29.6372 8.63074 30.017 9.22485 30.3497C9.22888 30.3525 9.23291 30.3538 9.2356 30.3566C9.32969 30.4093 9.42378 30.4606 9.51787 30.5105C9.52997 30.5174 9.54341 30.523 9.55551 30.5299C9.64153 30.5756 9.72756 30.6186 9.81358 30.663C9.83643 30.674 9.86063 30.6865 9.88348 30.6976C9.95875 30.735 10.0354 30.7711 10.112 30.8071C10.1483 30.8237 10.1846 30.8404 10.2209 30.857C10.284 30.8861 10.3486 30.9152 10.4117 30.943C10.4628 30.9651 10.5125 30.9873 10.5636 31.0095C10.6147 31.0317 10.6644 31.0525 10.7155 31.0733C10.78 31.0996 10.8459 31.1259 10.9117 31.1523C10.948 31.1675 10.9857 31.1814 11.022 31.1952C11.1013 31.2257 11.1806 31.2548 11.2599 31.284C11.2841 31.2923 11.3083 31.302 11.3325 31.3103C11.4239 31.3436 11.5153 31.3741 11.608 31.4059C11.6215 31.4101 11.6336 31.4142 11.647 31.4184C11.7491 31.4517 11.8513 31.4849 11.9535 31.5168C11.9575 31.5168 11.9602 31.5196 11.9642 31.5196C12.6134 31.7178 13.2815 31.8689 13.9656 31.9715C13.9683 31.9715 13.971 31.9715 13.9724 31.9715C14.0799 31.9881 14.1888 32.002 14.2976 32.0158C14.3084 32.0158 14.3191 32.0186 14.3299 32.02C14.4307 32.0325 14.5315 32.0436 14.6323 32.0533C14.6538 32.056 14.6753 32.0574 14.6969 32.0588C14.7883 32.0671 14.8783 32.0754 14.9697 32.0824C15.0047 32.0851 15.041 32.0865 15.0759 32.0893C15.1539 32.0948 15.2318 32.1004 15.3111 32.1032C15.3676 32.1059 15.4227 32.1073 15.4791 32.1101C15.5383 32.1129 15.5974 32.1156 15.6566 32.117C15.7695 32.1198 15.8837 32.1212 15.9966 32.1212C16.0007 32.1212 16.0034 32.1212 16.0074 32.1212C16.0114 32.1212 16.0155 32.1212 16.0195 32.1212C16.1324 32.1212 16.2466 32.1198 16.3596 32.117C16.4187 32.1156 16.4792 32.1129 16.5383 32.1101C16.5948 32.1073 16.6499 32.1059 16.7063 32.1032C16.7843 32.099 16.8623 32.0935 16.9402 32.0893C16.9765 32.0865 17.0115 32.0851 17.0478 32.0824C17.1392 32.0754 17.2292 32.0671 17.3206 32.0588C17.3421 32.0574 17.3636 32.0546 17.3851 32.0533C17.4859 32.0436 17.5881 32.0325 17.6876 32.02C17.6983 32.02 17.7091 32.0172 17.7185 32.0158C17.8274 32.002 17.9362 31.9881 18.0438 31.9715C18.0465 31.9715 18.0478 31.9715 18.0505 31.9715C18.7347 31.8703 19.4027 31.7178 20.0519 31.5196C20.0559 31.5196 20.06 31.5168 20.064 31.5154C20.1662 31.4836 20.2683 31.4517 20.3705 31.4184C20.3839 31.4142 20.396 31.4101 20.4095 31.4059C20.5022 31.3754 20.5936 31.3436 20.685 31.3103C20.7092 31.302 20.7334 31.2923 20.7576 31.284C20.8369 31.2548 20.9162 31.2257 20.9955 31.1952C21.0331 31.1814 21.0694 31.1661 21.1071 31.1509C21.1716 31.1245 21.2374 31.0996 21.302 31.0719C21.353 31.0511 21.4041 31.0289 21.4539 31.0081C21.5049 30.9859 21.5547 30.9651 21.6057 30.943C21.6703 30.9152 21.7348 30.8861 21.798 30.8556C21.8342 30.839 21.8705 30.8224 21.9055 30.8057C21.9821 30.7697 22.0587 30.7323 22.134 30.6948C22.1568 30.6837 22.1797 30.6727 22.2039 30.6602C22.2913 30.6172 22.3773 30.5729 22.4633 30.5271C22.4754 30.5202 22.4875 30.5146 22.4996 30.5077C22.595 30.4578 22.6891 30.4065 22.7832 30.3538C22.7872 30.3525 22.7899 30.3497 22.794 30.3483C23.3881 30.0156 23.9647 29.6358 24.5185 29.2089C24.5198 29.2075 24.5225 29.2061 24.5239 29.2047C24.6112 29.1368 24.6986 29.0689 24.7846 28.9982C24.7927 28.9913 24.8008 28.9843 24.8102 28.9774C24.8895 28.9123 24.9688 28.8471 25.0467 28.7806C25.0642 28.7667 25.0804 28.7515 25.0965 28.7376C25.1664 28.678 25.2363 28.617 25.3048 28.556C25.3317 28.5324 25.3586 28.5075 25.3841 28.4839C25.4433 28.4299 25.5024 28.3772 25.5602 28.3231C25.6019 28.2843 25.6422 28.2455 25.6825 28.2053C25.7269 28.1637 25.7699 28.1221 25.8143 28.0792C25.8949 28.0002 25.9756 27.9184 26.0549 27.838C26.0589 27.8338 26.0629 27.8311 26.0656 27.8269C26.0696 27.8227 26.0723 27.8186 26.0764 27.8158C26.1557 27.734 26.2336 27.6509 26.3102 27.5677C26.3519 27.5233 26.3909 27.4776 26.4312 27.4332L26.4433 27.4263ZM27.9945 18.0185C27.9945 18.0282 27.9945 18.0393 27.9945 18.049C27.985 18.2389 27.9729 18.4288 27.9555 18.6173C27.9555 18.6243 27.9555 18.6312 27.9541 18.6395C27.9367 18.8336 27.9138 19.0263 27.8869 19.2189V19.2217C27.8049 19.8094 27.6813 20.3916 27.5173 20.9627C27.5173 20.9641 27.5173 20.9655 27.5159 20.9682C27.4622 21.154 27.4044 21.3383 27.3425 21.5213C27.3385 21.5324 27.3358 21.5421 27.3318 21.5532C27.2726 21.7265 27.2095 21.8983 27.1423 22.0702C27.1342 22.091 27.1248 22.1132 27.1167 22.134C27.0536 22.2934 26.9863 22.4514 26.9165 22.6081C26.9017 22.6399 26.8869 22.6718 26.8734 22.7037C26.8076 22.8492 26.7377 22.9934 26.6651 23.1376C26.6449 23.1778 26.6234 23.2193 26.6033 23.2595C26.5334 23.394 26.4608 23.5285 26.3869 23.6615C26.3613 23.7059 26.3358 23.7516 26.3102 23.796C26.235 23.9249 26.1584 24.0524 26.0777 24.1786C26.0495 24.2229 26.0213 24.2673 25.993 24.3102C25.9097 24.4378 25.8237 24.5653 25.7363 24.69C25.7094 24.7275 25.6825 24.7663 25.6556 24.8037C25.5602 24.9368 25.4621 25.0671 25.3599 25.1974C25.3384 25.2251 25.3169 25.2528 25.2954 25.2806C25.1825 25.4219 25.0669 25.5619 24.9473 25.6992C24.9352 25.713 24.9231 25.7283 24.911 25.7421C24.7779 25.8946 24.6395 26.0429 24.4983 26.1899C24.3559 26.3368 24.2107 26.4782 24.0642 26.6154C24.0507 26.6279 24.036 26.6404 24.0225 26.6528C23.8894 26.7762 23.7537 26.8954 23.6166 27.0118C23.5897 27.034 23.5628 27.0562 23.5359 27.0784C23.4096 27.1823 23.2832 27.2849 23.1542 27.3833C23.1179 27.4111 23.0816 27.4388 23.044 27.4665C22.9217 27.558 22.7993 27.6467 22.6743 27.7313C22.6327 27.7604 22.5897 27.7895 22.5466 27.8172C22.4243 27.899 22.2993 27.9794 22.1743 28.057C22.1313 28.0833 22.0883 28.1097 22.0439 28.136C21.9149 28.2136 21.7859 28.2885 21.6541 28.3606C21.6152 28.3827 21.5762 28.4035 21.5358 28.4243C21.3961 28.4992 21.2563 28.5699 21.1151 28.6392C21.0842 28.6544 21.0533 28.6697 21.0224 28.6835C20.8705 28.7556 20.7173 28.8249 20.5627 28.8901C20.5425 28.8984 20.521 28.9081 20.5009 28.9164C20.3355 28.9857 20.1675 29.0509 19.9995 29.1119C19.9901 29.116 19.9793 29.1188 19.9699 29.1229C19.7925 29.1867 19.6137 29.2463 19.4336 29.3018C19.4323 29.3018 19.4309 29.3018 19.4282 29.3031C18.8731 29.4723 18.3086 29.5998 17.74 29.6843H17.7373C17.5505 29.7121 17.3623 29.7356 17.1741 29.7536C17.1674 29.7536 17.1607 29.7536 17.1526 29.755C16.9685 29.7731 16.7857 29.7869 16.6015 29.7952C16.5907 29.7952 16.5813 29.7952 16.5706 29.7952C16.3864 29.8035 16.2023 29.8091 16.0181 29.8091C15.834 29.8091 15.6498 29.8035 15.4657 29.7952C15.4549 29.7952 15.4455 29.7952 15.4348 29.7952C15.2506 29.7855 15.0665 29.7731 14.8837 29.755C14.877 29.755 14.8689 29.755 14.8622 29.7536C14.674 29.7356 14.4872 29.7121 14.3003 29.6843C14.299 29.6843 14.2976 29.6843 14.2963 29.6843C13.7277 29.5998 13.1632 29.4723 12.6081 29.3031C12.6054 29.3031 12.604 29.3031 12.6013 29.3018C12.4212 29.2463 12.2438 29.1867 12.0664 29.1229C12.0556 29.1188 12.0462 29.116 12.0354 29.1119C11.8674 29.0509 11.7008 28.9857 11.5354 28.9178C11.5139 28.9095 11.4938 28.8998 11.4723 28.8915C11.3177 28.8263 11.1658 28.7584 11.0139 28.6863C10.9816 28.6711 10.9507 28.6558 10.9198 28.6406C10.7787 28.5726 10.6389 28.5006 10.5004 28.4271C10.4601 28.4063 10.4211 28.3841 10.3822 28.362C10.2518 28.2899 10.1214 28.215 9.9937 28.1388C9.94934 28.1124 9.90633 28.0861 9.86332 28.0584C9.73831 27.9808 9.61465 27.9018 9.49233 27.82C9.44932 27.7909 9.40631 27.7618 9.36464 27.7326C9.24098 27.6467 9.11866 27.5594 8.99634 27.4679C8.95871 27.4402 8.92242 27.4124 8.88478 27.3847C8.75709 27.2863 8.62939 27.1851 8.50439 27.0812C8.47751 27.059 8.45062 27.0368 8.42374 27.0132C8.28664 26.8968 8.15222 26.7776 8.01915 26.6542C8.00571 26.6417 7.99093 26.6293 7.97748 26.6154C7.83097 26.4782 7.6858 26.3368 7.54333 26.1899C7.40085 26.0429 7.26374 25.8946 7.13067 25.7421C7.11858 25.7283 7.10648 25.713 7.09304 25.6992C6.97341 25.5619 6.85781 25.4233 6.74625 25.2819C6.72474 25.2542 6.70324 25.2265 6.68039 25.1988C6.57958 25.0699 6.48145 24.9382 6.38602 24.8065C6.35914 24.7691 6.33225 24.7302 6.30537 24.6928C6.21666 24.5681 6.13198 24.4405 6.04864 24.313C6.02041 24.2687 5.99219 24.2257 5.96396 24.1813C5.88465 24.0552 5.80669 23.9277 5.73142 23.7988C5.70588 23.7544 5.68034 23.7087 5.65481 23.6643C5.57953 23.5312 5.50695 23.3982 5.4384 23.2623C5.41689 23.2221 5.39673 23.1819 5.37657 23.1403C5.30398 22.9976 5.23543 22.852 5.16957 22.7079C5.15478 22.676 5.14 22.6427 5.12521 22.6108C5.05532 22.4542 4.98811 22.2962 4.92494 22.1368C4.91687 22.116 4.90746 22.0938 4.8994 22.073C4.83219 21.9025 4.76902 21.7292 4.70987 21.556C4.70584 21.5449 4.70315 21.5352 4.69912 21.5241C4.63729 21.3411 4.57949 21.1568 4.52573 20.971C4.52573 20.9696 4.52573 20.9669 4.52438 20.9655C4.3604 20.393 4.23674 19.8108 4.15474 19.2245C4.15474 19.2245 4.15474 19.2217 4.15474 19.2203C4.12786 19.0276 4.10501 18.8336 4.08754 18.6395C4.08754 18.6326 4.08754 18.6257 4.08619 18.6187C4.06872 18.4288 4.05528 18.2389 4.04721 18.049C4.04721 18.0393 4.04721 18.0282 4.04721 18.0185C4.02974 17.6373 4.02974 17.2561 4.04721 16.875C4.04721 16.8652 4.04721 16.8542 4.04721 16.8445C4.05662 16.6546 4.07006 16.4647 4.08619 16.2748C4.08619 16.2678 4.08619 16.2609 4.08754 16.254C4.10501 16.0599 4.12786 15.8658 4.15474 15.6732C4.15474 15.6732 4.15474 15.6718 4.15474 15.6704C4.23674 15.0827 4.3604 14.5005 4.52438 13.928C4.52438 13.9266 4.52438 13.9252 4.52573 13.9238C4.57949 13.7381 4.63729 13.5537 4.69912 13.3708C4.70315 13.3611 4.70584 13.35 4.70987 13.3403C4.76902 13.167 4.83219 12.9937 4.8994 12.8232C4.90746 12.8025 4.91553 12.7817 4.92494 12.7595C4.98811 12.6001 5.05532 12.4421 5.12521 12.2854C5.14 12.2535 5.15478 12.2217 5.16823 12.1884C5.23409 12.0428 5.30398 11.8973 5.37657 11.7545C5.39673 11.7143 5.41824 11.6741 5.4384 11.6339C5.50829 11.4981 5.58088 11.365 5.65615 11.2319C5.68169 11.1876 5.70723 11.1432 5.73277 11.0989C5.80804 10.97 5.886 10.8424 5.9653 10.7149C5.99353 10.6706 6.02041 10.6276 6.04864 10.5846C6.13198 10.4557 6.218 10.3296 6.30671 10.2034C6.3336 10.166 6.36048 10.1272 6.38736 10.0898C6.4828 9.95669 6.58092 9.8264 6.68307 9.6961C6.70458 9.66838 6.72609 9.64065 6.74759 9.61293C6.8605 9.47154 6.9761 9.33154 7.09573 9.19431C7.10782 9.18045 7.11992 9.1652 7.13202 9.15134C7.26509 8.99887 7.40354 8.85055 7.54467 8.70362C7.69253 8.55114 7.84307 8.40421 7.9963 8.26144C8.00974 8.24896 8.02453 8.23649 8.03797 8.22401C8.1791 8.09371 8.32427 7.96757 8.46944 7.8442C8.48826 7.82896 8.50708 7.81232 8.52589 7.79708C8.67241 7.67648 8.82026 7.55866 8.97081 7.44638C8.98559 7.43529 9.00172 7.42282 9.01651 7.41173C9.17915 7.29113 9.34313 7.1747 9.50981 7.0638C9.50981 7.0638 9.51115 7.0638 9.5125 7.06242C10.2088 6.59806 10.9427 6.21548 11.6994 5.91469V5.91192C12.6322 5.54043 13.6229 5.28538 14.6525 5.16478C14.6525 5.16478 14.6525 5.16617 14.6538 5.16756C16.1808 4.98736 17.7346 5.10934 19.2239 5.5335C19.2468 5.54043 19.271 5.54736 19.2938 5.55429C19.3637 5.57508 19.435 5.59587 19.5049 5.61805C19.5586 5.63469 19.6124 5.65271 19.6648 5.66934C19.7011 5.68182 19.7387 5.69429 19.775 5.70677C19.853 5.7331 19.9323 5.76083 20.0102 5.78855C20.017 5.79132 20.025 5.79409 20.0318 5.79687C20.3167 5.90083 20.5963 6.01726 20.8718 6.14202C20.8718 6.14202 20.8718 6.14202 20.8732 6.14202C21.7885 6.55925 22.6636 7.09984 23.4741 7.76519C23.4741 7.76519 23.4741 7.76797 23.4741 7.76935C23.8921 8.11173 24.286 8.48322 24.6556 8.87827C24.6852 8.91015 24.7134 8.94065 24.743 8.97253C24.8639 9.1056 24.9822 9.24006 25.0978 9.37728C25.1193 9.40362 25.1422 9.42996 25.1637 9.4563C25.2887 9.60877 25.411 9.76402 25.5293 9.92204C25.54 9.9359 25.5495 9.94976 25.5602 9.96362C25.8842 10.4016 26.1799 10.8618 26.4447 11.3415C26.4675 11.383 26.4904 11.426 26.5132 11.469C26.5858 11.6048 26.657 11.7421 26.7242 11.8807C26.7578 11.95 26.7914 12.0179 26.8237 12.0872C26.864 12.1731 26.9044 12.2605 26.942 12.3478C26.9931 12.4642 27.0428 12.5807 27.0898 12.6985C27.1127 12.7553 27.1355 12.8135 27.1584 12.8704C27.2149 13.0173 27.2686 13.1642 27.3197 13.3126C27.3318 13.35 27.3439 13.3874 27.3573 13.4234C27.4729 13.7728 27.5751 14.1248 27.6598 14.4825C27.6625 14.4936 27.6651 14.5046 27.6678 14.5157C27.7108 14.6987 27.7498 14.8831 27.7848 15.0688C27.7875 15.0813 27.7901 15.0951 27.7915 15.1076C27.8614 15.4805 27.9125 15.8547 27.9488 16.2304C27.9501 16.247 27.9528 16.2637 27.9541 16.2803C27.9703 16.4577 27.9824 16.6365 27.9918 16.8153C27.9931 16.8472 27.9945 16.8777 27.9958 16.9096C28.0119 17.2797 28.0119 17.6498 27.9958 18.0199L27.9945 18.0185Z" fill="#0EB6BF"/>
<path d="M17.7561 29.2837C17.4954 29.2837 17.0787 29.2228 16.5706 28.9317L16.5383 28.9123C15.7977 28.4493 15.5826 27.9073 15.5343 27.7521L15.3703 27.2253L15.7171 26.8025C15.7238 26.7942 15.7587 26.7526 15.8058 26.6972C15.8044 26.6417 15.8044 26.5863 15.8058 26.5309C15.6915 26.0956 15.4711 25.293 15.2641 24.697C15.1969 24.5029 15.1458 24.3768 15.1135 24.3019C15.006 24.3754 14.8985 24.4447 14.7923 24.5099C14.7399 24.5459 14.7022 24.5764 14.6767 24.5972C14.5947 24.8592 14.502 25.1225 14.4966 25.1364L14.3138 25.6576L13.7882 25.7726C13.7291 25.7851 13.6027 25.8073 13.4159 25.8073C13.0194 25.8073 12.3769 25.7103 11.5663 25.2459L11.5341 25.2265C10.3432 24.4821 10.0381 23.6574 9.98832 23.4994L9.82434 22.9712L10.1711 22.5485C10.1792 22.5374 10.3553 22.3239 10.5354 22.1201C10.5408 22.0855 10.5475 22.0356 10.5515 21.9732C10.5542 21.8443 10.5596 21.7112 10.5676 21.5768C10.4964 21.5837 10.3633 21.6003 10.1537 21.6391C9.55282 21.7487 8.76515 21.951 8.34175 22.0633C8.2947 22.0924 8.24766 22.1201 8.20061 22.1451C8.17776 22.2144 8.15895 22.2657 8.15626 22.2754L7.97211 22.7966L7.44655 22.9116C7.38741 22.9241 7.28928 22.9394 7.15756 22.9394C6.8968 22.9394 6.48011 22.8784 5.97203 22.5873L5.93977 22.5679C5.19914 22.1049 4.98408 21.5629 4.93569 21.4077L4.77171 20.8795L5.11984 20.4568C5.12656 20.4484 5.16151 20.4069 5.20721 20.3514C5.16285 18.8239 6.19784 17.4973 7.03255 16.4272C7.28928 16.0987 7.53123 15.7882 7.71 15.5138C8.45197 14.3799 9.97757 13.0104 10.7585 13.0104C10.9359 13.0104 11.1093 13.0575 11.2599 13.149C11.8338 13.4928 11.8217 14.1637 11.7586 14.8235C12.1806 14.6211 12.5839 14.3841 12.8782 14.1928C13.7586 12.4601 14.6081 11.1751 15.0477 10.55C16.7346 8.14916 20.8745 4.50221 22.4969 3.57626L23.3545 2.0515C23.2792 1.69388 23.3276 1.30853 23.5144 0.977238C23.7738 0.515651 24.2564 0.230105 24.7739 0.230105C25.0293 0.230105 25.282 0.300799 25.5038 0.432483C26.1973 0.848327 26.4352 1.76734 26.032 2.48398C25.8465 2.8125 25.5481 3.0523 25.2054 3.16319L24.3478 4.68657C24.3733 6.59945 23.3558 12.1163 22.173 14.8165C21.8638 15.5221 21.2025 16.9249 20.1756 18.5785C20.1608 18.9431 20.1621 19.4102 20.1998 19.876C20.603 19.5807 21.021 19.3562 21.3557 19.3562C21.5332 19.3562 21.7066 19.4047 21.8584 19.4948C22.4297 19.8372 22.4566 20.5247 22.3141 21.5241C22.2321 22.0993 22.0466 22.9698 21.6273 23.8473C21.4848 24.1453 21.3436 24.5154 21.1944 24.9077C20.7079 26.1857 20.1043 27.7715 18.7965 28.4895C18.7736 28.5588 18.7548 28.6101 18.7508 28.6212L18.5666 29.141L18.0411 29.256C17.9819 29.2685 17.8838 29.2837 17.7521 29.2837H17.7561Z" fill="#2D2E2D"/>
<path d="M25.0185 1.29882C24.786 1.15882 24.4876 1.2406 24.3518 1.48179C24.2349 1.68971 24.2792 1.94892 24.4459 2.10556L23.1865 4.3428C22.3087 4.65745 17.6876 8.49708 15.83 11.1405C15.1821 12.0623 14.3662 13.3874 13.6175 14.8914C13.4414 15.0134 11.8137 16.1209 10.5448 16.2567C10.5219 16.2595 10.4964 16.2664 10.4709 16.2748C10.8419 15.1256 10.8566 14.068 10.7706 14.0167C10.6644 13.953 9.35792 14.7791 8.50842 16.0765C7.70866 17.2977 6.07955 18.8072 6.17364 20.3916C6.17364 20.3916 6.17768 20.7354 6.07687 20.8463C5.97606 20.9572 5.85374 21.1055 5.85374 21.1055C5.85374 21.1055 5.94917 21.4118 6.43844 21.7168C6.93846 22.0023 7.24358 21.9358 7.24358 21.9358C7.24358 21.9358 7.3081 21.7514 7.35111 21.6073C7.39413 21.4631 7.6858 21.2954 7.6858 21.2954C7.77721 21.2496 7.86323 21.1956 7.94657 21.1374C8.3525 21.0278 9.27593 20.7853 9.9816 20.6564C10.1765 20.6203 10.3539 20.594 10.5004 20.5815C11.4171 20.508 11.5637 21.2219 11.5637 21.2219C11.5368 21.4908 11.5193 21.757 11.5153 22.0189C11.5018 22.2324 11.4602 22.5568 11.3352 22.694C11.1416 22.9061 10.905 23.1944 10.905 23.1944C10.905 23.1944 11.0892 23.7849 12.0314 24.3726C12.9952 24.9243 13.5826 24.7954 13.5826 24.7954C13.5826 24.7954 13.7076 24.4405 13.7909 24.1619C13.8447 23.9817 14.0974 23.7835 14.2708 23.6657C14.4925 23.5298 14.7116 23.3801 14.9294 23.218C15.0383 23.1902 15.623 23.0821 15.9778 23.857C16.0397 23.9942 16.1055 24.1675 16.1714 24.3588C16.4133 25.056 16.6674 26.0027 16.7762 26.4213C16.7682 26.5253 16.7668 26.6279 16.7722 26.7318C16.7722 26.7318 16.7762 27.0756 16.6754 27.1865C16.5746 27.2974 16.4523 27.4457 16.4523 27.4457C16.4523 27.4457 16.5477 27.752 17.037 28.057C17.537 28.3425 17.8421 28.276 17.8421 28.276C17.8421 28.276 17.9067 28.0917 17.9497 27.9475C17.9927 27.8033 18.2844 27.6356 18.2844 27.6356C19.6648 26.9342 20.1272 24.7247 20.7576 23.4037C21.4283 21.9995 21.4754 20.4193 21.3692 20.3556C21.2831 20.3043 20.4 20.8421 19.6164 21.7445C19.611 21.7168 19.6057 21.6918 19.5963 21.6696C19.0922 20.4914 19.2024 18.5411 19.2212 18.2569C20.1205 16.8375 20.8329 15.4445 21.2885 14.4035C22.5923 11.4288 23.5319 5.38795 23.3612 4.44537L23.3746 4.42181L24.6207 2.20813C24.8344 2.27883 25.075 2.1915 25.1919 1.98219C25.3263 1.74239 25.2484 1.43466 25.0145 1.29466L25.0185 1.29882Z" fill="#0EB6BF"/>
</svg>
