<svg width="30" height="21" viewBox="0 0 30 21" fill="none" xmlns="http://www.w3.org/2000/svg">
<path fill-rule="evenodd" clip-rule="evenodd" d="M28.2201 1.60043C28.6826 2.06586 29.0147 2.64459 29.1832 3.27871C29.8065 5.61919 29.8065 10.5 29.8065 10.5C29.8065 10.5 29.8065 15.3808 29.1832 17.7213C29.0147 18.3554 28.6826 18.9341 28.2201 19.3996C27.7577 19.865 27.1811 20.2008 26.5481 20.3734C24.2177 21 14.9032 21 14.9032 21C14.9032 21 5.58871 21 3.25839 20.3734C2.62537 20.2008 2.04877 19.865 1.58631 19.3996C1.12385 18.9341 0.791741 18.3554 0.623226 17.7213C0 15.3808 0 10.5 0 10.5C0 10.5 0 5.61919 0.623226 3.27871C0.791741 2.64459 1.12385 2.06586 1.58631 1.60043C2.04877 1.13499 2.62537 0.799187 3.25839 0.626613C5.58871 0 14.9032 0 14.9032 0C14.9032 0 24.2177 0 26.5481 0.626613C27.1811 0.799187 27.7577 1.13499 28.2201 1.60043ZM19.6453 10.5L11.855 6.06801V14.932L19.6453 10.5Z" fill="#2D2E2D"/>
</svg>
